<?xml version="1.0" standalone="no"?>
<!DOCTYPE svg PUBLIC "-//W3C//DTD SVG 20010904//EN"
 "http://www.w3.org/TR/2001/REC-SVG-20010904/DTD/svg10.dtd">
<svg version="1.0" xmlns="http://www.w3.org/2000/svg"
 width="1935.000000pt" height="1681.000000pt" viewBox="0 0 1935.000000 1681.000000"
 preserveAspectRatio="xMidYMid meet">
<metadata>
Created by potrace 1.12, written by Peter Selinger 2001-2015
</metadata>
<g transform="translate(0.000000,1681.000000) scale(0.100000,-0.100000)"
fill="#000000" stroke="none">
<path d="M9201 16481 c-7 -5 -72 -9 -144 -9 -120 -1 -224 -13 -248 -28 -5 -3
-6 -10 -3 -16 4 -6 3 -8 -3 -5 -6 4 -52 -5 -102 -18 -51 -14 -107 -25 -124
-25 -37 -1 -67 -20 -67 -43 0 -11 -14 -18 -47 -23 -54 -9 -53 -9 -73 -17 -8
-3 -40 -11 -70 -17 -71 -15 -161 -51 -154 -62 3 -4 17 -8 30 -8 16 0 24 -5 21
-12 -2 -9 -27 -13 -74 -13 -52 0 -83 -6 -124 -24 -74 -33 -261 -120 -279 -131
-8 -5 -51 -28 -95 -51 -69 -36 -173 -103 -240 -155 l-20 -15 20 -16 c20 -15
20 -15 -2 -10 -14 3 -32 -2 -47 -14 -13 -10 -31 -19 -40 -19 -13 0 -14 -4 -8
-17 13 -25 4 -43 -19 -43 -14 0 -25 -13 -38 -44 -17 -38 -22 -43 -45 -39 -26
5 -32 14 -19 26 3 4 14 0 23 -8 16 -14 17 -14 13 8 -4 18 2 29 18 41 13 8 20
19 16 22 -4 4 -17 -1 -30 -12 -12 -11 -38 -27 -57 -37 -41 -21 -103 -72 -77
-63 9 3 17 2 17 -3 0 -9 -39 -24 -55 -21 -5 1 -4 -4 3 -11 17 -18 15 -32 -4
-25 -38 14 -133 -51 -198 -137 -16 -21 -44 -45 -63 -54 -19 -9 -40 -28 -46
-42 -6 -14 -21 -36 -32 -48 -11 -12 -29 -31 -39 -42 -15 -16 -16 -21 -5 -21
34 0 83 21 115 49 42 37 54 39 54 6 0 -33 -20 -75 -36 -75 -8 0 -23 -18 -34
-39 -11 -22 -29 -42 -40 -46 -25 -8 -53 12 -46 32 4 10 -1 9 -19 -3 -24 -15
-24 -17 -9 -46 15 -29 13 -60 -3 -57 -20 3 -34 -2 -28 -10 3 -5 -17 -31 -45
-57 -43 -41 -50 -52 -45 -75 5 -20 0 -34 -20 -55 -14 -15 -33 -52 -41 -82 -14
-45 -19 -53 -36 -49 -14 4 -18 2 -14 -8 6 -16 -18 -80 -34 -90 -5 -3 -10 -11
-10 -17 0 -6 7 -5 17 3 30 25 -74 -104 -122 -151 -25 -25 -56 -65 -67 -90 -11
-25 -26 -52 -33 -60 -13 -15 -15 -19 -15 -40 0 -5 -6 -10 -14 -10 -13 0 -96
-70 -96 -81 0 -3 -17 -24 -38 -47 -21 -23 -44 -61 -52 -84 -7 -24 -17 -53 -23
-65 -7 -16 -7 -26 2 -37 10 -12 8 -17 -9 -26 -15 -8 -19 -17 -15 -31 4 -11 2
-19 -4 -19 -6 0 -11 5 -11 12 0 19 -14 -1 -17 -25 -2 -12 -10 -27 -18 -33 -9
-7 -13 -19 -9 -28 4 -11 1 -16 -13 -16 -19 0 -43 -18 -43 -32 0 -4 7 -8 17 -8
15 0 15 -1 0 -18 -10 -10 -17 -21 -17 -25 0 -4 -14 -27 -32 -52 -27 -38 -30
-49 -21 -64 9 -14 8 -22 -3 -33 -8 -8 -16 -26 -18 -39 -1 -14 -5 -30 -9 -36
-12 -19 -11 -77 2 -101 6 -12 8 -22 4 -22 -4 0 -1 -5 7 -10 13 -9 12 -12 -4
-25 -18 -14 -18 -16 -3 -33 18 -20 13 -34 -9 -25 -16 6 -19 -13 -4 -22 14 -9
12 -35 -4 -67 -11 -22 -12 -29 -2 -37 7 -6 15 -8 19 -5 9 10 19 -35 11 -58 -4
-13 -16 -35 -27 -50 -22 -30 -17 -49 7 -29 16 14 15 -8 -5 -112 -5 -26 -9 -66
-9 -89 l0 -40 21 23 20 24 -6 -25 c-4 -14 -13 -38 -21 -54 -18 -37 -19 -80 -1
-70 10 6 10 4 0 -7 -17 -17 -17 -52 0 -47 6 3 18 15 24 29 l13 24 0 -26 c0
-15 7 -32 14 -39 11 -8 12 -18 5 -36 -12 -34 -11 -44 4 -38 10 3 13 -17 12
-88 0 -51 2 -137 5 -190 4 -87 7 -97 22 -92 13 4 16 1 12 -10 -3 -9 -10 -14
-15 -11 -4 3 -6 -9 -3 -27 11 -69 15 -193 6 -180 -14 20 -19 -4 -11 -53 l6
-40 8 33 c4 17 11 32 16 32 4 0 9 19 11 43 5 75 21 40 23 -51 1 -49 6 -95 11
-103 13 -21 14 -41 4 -76 -8 -31 3 -57 13 -31 3 7 7 0 8 -17 1 -17 5 -4 8 29
6 62 30 92 32 39 l1 -28 13 29 12 30 8 -24 c5 -17 3 -27 -10 -36 -11 -8 -15
-19 -10 -33 7 -24 30 -28 39 -6 11 29 24 14 21 -24 -1 -21 -5 -43 -7 -47 -9
-17 -8 -193 1 -199 6 -3 6 -18 1 -35 -8 -27 -7 -29 10 -20 16 8 17 6 15 -23
-5 -46 -22 -147 -30 -181 -6 -22 -2 -40 16 -73 29 -52 44 -56 36 -8 -3 20 0
66 7 103 7 40 9 79 5 97 -5 17 -4 46 2 69 11 41 5 86 -11 86 -6 0 -10 -6 -10
-12 0 -7 -5 -5 -11 5 -6 10 -8 30 -4 44 6 24 7 24 19 8 21 -29 30 -1 31 93 1
69 -1 82 -14 80 -8 -2 -18 -14 -22 -28 -7 -24 -7 -24 -8 -2 -1 22 20 63 47 91
16 16 32 56 32 76 0 12 -5 12 -25 3 -14 -6 -25 -17 -25 -25 0 -7 -3 -13 -8
-13 -12 0 -32 53 -27 75 2 11 6 33 10 48 8 40 25 23 23 -24 -2 -47 13 -67 31
-45 8 9 15 53 17 102 2 48 8 92 14 99 6 7 13 21 15 31 17 71 37 159 50 219 8
39 17 81 20 95 3 14 8 53 10 87 3 35 10 74 15 88 6 15 10 39 10 54 0 16 12 45
26 66 23 35 34 69 36 115 1 8 5 18 10 21 5 3 12 26 15 50 7 53 17 68 61 86 28
12 32 17 22 28 -7 8 -11 15 -9 16 31 7 47 4 39 -7 -8 -8 -6 -13 6 -18 25 -10
34 -7 34 9 0 8 -5 15 -11 15 -13 0 -8 31 6 32 6 0 18 4 29 10 13 7 21 7 26 -2
6 -10 17 -8 44 9 37 23 110 32 135 17 8 -5 14 -1 18 13 5 21 33 30 33 11 0 -5
9 -10 21 -10 11 0 17 5 14 10 -3 6 4 10 18 10 13 0 35 8 48 18 13 10 40 24 59
32 19 7 43 20 52 28 9 8 32 15 50 16 19 0 47 11 63 24 16 12 35 20 43 17 10
-3 12 0 8 10 -3 9 0 15 8 15 8 0 17 6 19 13 4 8 6 7 6 -4 1 -15 23 -17 76 -6
11 2 14 2 7 0 -8 -3 -11 -11 -8 -19 3 -8 0 -14 -6 -14 -6 0 -9 -3 -6 -6 7 -7
46 12 68 33 35 33 134 83 140 72 6 -8 9 -8 14 0 10 16 43 13 72 -6 24 -15 26
-15 46 4 l20 21 -27 -6 c-25 -4 -26 -3 -14 16 18 28 65 45 89 32 19 -10 50 -4
50 10 0 5 10 6 23 3 19 -4 20 -3 5 7 -22 14 -23 40 -2 40 9 0 12 5 8 13 -5 9
-4 9 6 0 10 -9 20 -7 44 10 17 12 32 25 34 29 2 4 9 5 15 2 7 -2 35 10 62 27
63 40 196 109 211 109 7 0 14 10 18 22 5 22 6 22 20 3 9 -11 16 -15 16 -9 0 6
13 14 29 17 16 4 41 18 55 32 14 14 32 25 40 25 8 0 24 12 35 27 12 14 24 23
27 20 4 -3 29 2 58 12 28 10 70 24 94 31 23 7 42 17 42 22 0 4 6 8 13 8 6 0
26 13 42 28 26 24 38 28 86 27 40 0 55 4 52 12 -3 6 5 18 17 25 12 7 28 28 37
46 8 17 20 32 26 32 5 0 15 7 22 16 6 9 24 17 40 17 17 0 29 6 32 16 6 22 89
80 168 117 22 10 44 24 48 31 4 7 16 13 25 13 54 0 149 53 125 69 -6 3 -13 18
-16 32 -6 22 -2 30 19 44 15 9 36 18 48 19 25 3 66 27 66 39 0 11 40 63 46 60
15 -10 39 2 74 37 22 22 45 40 50 40 6 0 10 6 10 13 0 8 11 19 25 25 14 6 25
16 25 22 0 5 8 10 18 10 24 1 56 26 43 35 -6 3 -11 14 -11 24 0 19 50 42 118
56 17 4 32 10 32 15 0 4 17 12 38 18 20 6 76 26 123 45 82 33 86 33 97 16 14
-22 42 -15 42 10 0 21 34 38 90 47 24 4 40 12 40 20 0 24 46 47 68 35 16 -8
21 -7 26 5 9 23 25 7 18 -19 -5 -20 -4 -21 14 -7 10 8 40 34 66 57 33 30 56
43 76 43 16 0 37 9 47 20 10 11 24 20 31 20 7 0 25 14 41 30 15 17 33 30 40
30 6 0 13 5 15 11 2 5 24 12 48 13 44 3 117 38 133 63 5 8 24 11 52 9 25 -2
45 1 45 5 0 5 11 11 25 15 14 3 25 12 25 19 0 7 10 15 23 19 13 3 36 17 51 31
31 29 48 31 66 10 9 -11 15 -13 20 -5 4 7 24 13 44 15 28 3 36 0 37 -13 0 -10
4 -6 10 9 15 40 72 45 117 12 18 -14 48 -29 67 -34 19 -5 36 -18 39 -27 3 -10
18 -25 33 -34 29 -17 33 -18 56 -18 8 0 28 -21 46 -46 19 -25 44 -50 57 -56
13 -6 21 -15 18 -19 -3 -5 0 -9 5 -9 6 0 21 -10 33 -22 13 -13 42 -40 65 -60
24 -20 40 -39 35 -42 -11 -7 -90 10 -106 23 -10 9 -15 8 -19 -3 -6 -16 6 -28
73 -72 55 -36 110 -63 128 -64 20 0 71 -30 113 -65 20 -16 79 -61 131 -100 90
-66 125 -105 113 -125 -8 -14 58 -70 82 -70 16 0 21 -4 17 -15 -4 -10 6 -20
30 -32 32 -15 42 -25 34 -36 -2 -2 3 -11 10 -20 11 -13 9 -16 -17 -22 -20 -4
-42 -1 -62 9 -43 22 -56 20 -34 -4 13 -15 14 -20 5 -20 -19 0 46 -47 96 -70
22 -11 47 -26 54 -35 7 -9 19 -14 25 -11 7 2 18 0 26 -5 11 -7 11 -9 -3 -9
-11 0 -18 -8 -18 -20 0 -17 7 -20 48 -21 86 -2 105 -11 129 -56 18 -34 20 -48
12 -75 -14 -48 14 -95 63 -109 28 -7 38 -15 38 -30 0 -12 8 -23 20 -26 30 -8
39 -88 15 -145 -5 -13 -2 -15 12 -12 31 8 52 -26 58 -96 7 -72 48 -166 77
-176 10 -3 19 -12 19 -20 1 -8 2 -20 3 -26 1 -7 9 -12 18 -12 10 1 20 -7 23
-17 4 -11 11 -19 16 -19 5 0 10 -15 10 -32 1 -135 0 -175 -6 -189 -10 -26 66
-226 94 -243 5 -3 12 -23 16 -43 11 -62 36 -126 59 -158 13 -16 26 -42 30 -57
3 -16 11 -28 16 -28 6 0 10 -5 10 -10 0 -6 10 -25 23 -41 23 -32 32 -117 13
-131 -11 -7 9 -60 37 -102 16 -23 17 -30 6 -37 -11 -6 -11 -11 -1 -21 18 -18
14 -30 -8 -23 -32 10 -21 -34 21 -79 11 -11 20 -23 20 -28 3 -19 5 -24 13 -38
7 -12 6 -13 -5 -2 -7 6 -19 12 -26 12 -20 0 -16 -91 6 -143 16 -37 17 -46 6
-51 -8 -3 -17 3 -20 15 -4 10 -11 17 -16 13 -5 -3 -7 -10 -3 -15 3 -5 7 -36 8
-69 3 -46 0 -60 -11 -60 -11 0 -11 -4 0 -27 9 -19 11 -38 6 -56 -4 -16 -4 -39
1 -52 5 -12 5 -49 0 -81 -5 -37 -4 -66 2 -78 6 -11 12 -49 14 -86 2 -37 12
-85 23 -110 l19 -44 6 35 c9 46 5 174 -4 174 -1 0 -3 14 -5 30 -5 46 -9 59
-29 91 -19 29 -19 29 1 11 20 -17 20 -17 18 33 -2 57 9 75 19 29 4 -19 13 -33
26 -36 21 -5 24 -13 20 -48 -1 -15 1 -17 9 -9 14 13 22 99 24 259 1 84 6 120
14 120 28 0 37 49 16 86 -14 24 -13 29 11 75 l27 49 -6 -45 c-6 -38 -2 -56 24
-111 18 -35 43 -77 56 -91 14 -15 25 -39 25 -54 0 -56 9 -16 15 66 4 47 16
128 27 180 11 52 22 109 24 125 11 82 17 105 29 105 7 0 15 -6 18 -12 7 -20
14 -7 20 35 3 21 1 37 -5 37 -6 0 -8 -7 -5 -14 4 -9 1 -13 -6 -10 -20 7 -37
57 -37 109 0 28 0 104 0 170 0 86 -4 123 -13 132 -13 14 -11 73 2 73 4 0 6 23
5 51 -3 70 16 63 46 -18 13 -33 34 -44 42 -20 2 6 3 53 2 102 -1 59 3 99 11
116 10 18 12 48 8 103 -4 54 -2 84 7 101 10 20 11 30 2 51 -7 14 -10 30 -6 35
12 20 11 99 -2 99 -7 0 -15 -8 -17 -17 -3 -10 -3 3 0 30 2 26 6 53 9 61 3 7
-2 20 -10 29 -20 19 -20 41 -2 56 11 9 15 9 19 -1 2 -7 2 -1 0 15 -3 15 0 27
6 27 7 0 9 14 6 38 -2 20 -7 57 -10 81 -3 25 -15 65 -27 90 -18 38 -23 42 -29
25 -5 -14 -8 -8 -8 21 -1 23 -8 50 -16 60 -9 11 -26 35 -39 53 l-24 33 -6 -28
c-3 -15 -8 -53 -11 -83 -9 -74 -25 -128 -43 -143 -13 -10 -14 -8 -8 16 8 35
-1 52 -20 36 -8 -6 -14 -8 -14 -3 0 4 12 19 28 32 15 13 22 21 16 18 -6 -3
-11 1 -11 8 0 8 7 12 16 9 11 -3 10 0 -3 11 -19 15 -22 14 -53 -16 l-33 -32 6
34 c4 19 7 37 7 40 1 3 -3 15 -7 28 -4 13 -3 28 2 35 14 18 9 67 -8 77 -13 8
-11 11 7 16 18 5 23 16 29 60 3 30 10 57 15 59 4 3 6 12 3 20 -4 8 -10 12 -15
9 -5 -3 -7 -9 -4 -14 3 -5 1 -11 -4 -14 -10 -7 -22 37 -26 99 -2 22 -8 53 -14
68 -6 16 -11 35 -11 44 0 10 -6 14 -18 11 -22 -6 -42 14 -42 44 0 13 -7 33
-15 45 -13 18 -13 22 0 33 20 16 19 49 0 57 -22 8 -58 81 -50 101 5 14 4 15
-6 5 -22 -21 -26 -15 -37 45 -9 53 -71 184 -92 197 -5 3 -18 0 -28 -6 -14 -9
-25 -8 -50 5 -39 20 -33 36 11 36 l32 1 -33 29 c-18 17 -39 30 -47 30 -8 0
-15 13 -17 33 -2 25 -8 33 -26 35 -29 4 -69 -28 -50 -39 8 -5 3 -10 -15 -14
-28 -7 -64 1 -53 12 3 3 -1 14 -10 24 -14 15 -14 22 2 69 16 49 16 53 1 62
-21 11 -23 58 -2 58 9 0 15 9 15 21 0 11 -7 27 -15 35 -8 9 -15 30 -15 49 0
18 -3 35 -7 37 -5 2 -15 17 -23 33 -9 17 -26 34 -38 40 -12 5 -22 15 -22 22 0
7 -18 24 -40 38 -22 14 -40 30 -40 35 0 6 -13 10 -30 10 -16 0 -30 4 -30 9 0
5 -14 13 -31 16 -18 4 -55 21 -83 38 -132 78 -134 78 -204 76 -49 -1 -82 4
-122 20 -30 11 -63 21 -72 21 -10 0 -35 8 -56 17 -32 13 -39 22 -40 45 0 22 5
29 24 34 13 3 34 4 47 1 12 -4 29 -2 37 3 12 8 11 11 -7 16 -12 3 -24 12 -27
20 -3 8 -12 14 -21 14 -8 0 -15 7 -15 15 0 9 -17 19 -46 26 -31 8 -42 15 -35
22 7 7 15 6 24 -1 13 -12 27 -7 27 9 0 5 -20 22 -45 39 -25 17 -44 26 -43 19
2 -9 -12 -13 -52 -12 -33 1 -64 -4 -77 -13 -15 -10 -29 -11 -40 -5 -47 24 -71
32 -97 35 -16 2 -33 10 -38 19 -11 21 -53 23 -45 4 11 -28 -9 -38 -29 -16 -17
20 -17 22 -1 16 11 -4 17 -1 17 8 0 19 -35 28 -59 16 -13 -7 -22 -8 -26 -1 -3
5 -14 10 -24 10 -29 0 -15 49 17 57 23 5 24 7 8 18 -11 8 -55 13 -121 14
l-104 1 22 -23 c12 -13 42 -33 67 -45 54 -27 86 -50 78 -57 -3 -3 -17 -1 -32
5 -21 8 -28 7 -32 -5 -8 -21 -21 -19 -52 10 -15 14 -33 25 -40 25 -7 0 -11 4
-8 9 4 5 -13 23 -36 40 -24 18 -42 35 -40 39 1 4 -6 8 -17 10 -11 2 -25 10
-31 18 -7 8 -20 14 -30 14 -9 0 -29 9 -43 20 -14 11 -28 16 -31 11 -6 -9 -36
-6 -71 9 -27 11 -68 20 -61 13 8 -8 46 -30 74 -42 12 -6 22 -16 22 -22 0 -6 7
-9 15 -6 7 3 24 -3 37 -14 13 -11 17 -18 10 -14 -7 4 -19 2 -27 -5 -10 -9 -19
-9 -35 0 -12 6 -24 9 -27 6 -10 -10 8 -25 45 -36 20 -7 42 -19 49 -27 6 -8 16
-12 21 -9 5 3 16 -2 25 -12 19 -21 7 -48 -17 -39 -8 3 -18 2 -21 -3 -4 -6 1
-10 9 -10 8 0 24 -12 35 -26 12 -15 25 -23 32 -18 8 4 9 3 5 -4 -4 -7 -3 -12
3 -12 5 0 11 6 14 13 2 6 4 -2 5 -20 0 -19 15 -53 37 -84 19 -28 34 -54 31
-56 -7 -8 -77 68 -71 78 4 5 0 9 -7 9 -7 0 -38 19 -68 40 -30 22 -57 35 -59
29 -1 -5 5 -17 15 -25 11 -8 0 -5 -23 8 -46 25 -65 49 -32 41 10 -3 19 -1 19
5 0 16 -34 19 -45 5 -8 -11 -22 -7 -68 17 -32 17 -63 27 -69 24 -6 -4 -8 -2
-5 3 4 6 0 13 -8 17 -8 3 -15 10 -15 16 0 16 -69 79 -114 104 -21 11 -48 26
-59 33 -11 6 -43 15 -71 19 -31 4 -56 14 -66 26 -9 11 -31 26 -50 33 -19 7
-66 25 -105 40 -38 15 -86 27 -105 26 -19 0 -58 11 -88 25 -37 17 -58 22 -64
16 -7 -7 4 -15 33 -23 24 -7 46 -16 49 -20 3 -3 15 -11 28 -18 29 -15 24 -33
-11 -42 -27 -7 -48 5 -25 14 7 3 -3 3 -22 0 -29 -4 -40 0 -62 22 -23 22 -33
26 -55 20 -67 -19 -134 -10 -118 15 2 4 -7 12 -20 18 -15 7 -25 20 -25 32 0
11 -5 20 -11 20 -6 0 -9 -7 -5 -15 6 -15 -21 -26 -59 -24 -11 1 -28 -2 -37 -6
-10 -4 -18 -3 -18 3 0 5 -10 10 -22 10 -35 1 -200 28 -223 36 -11 4 -30 13
-42 19 -17 7 -30 7 -49 -2 -19 -8 -47 -9 -103 -2 -42 5 -102 9 -133 9 -31 1
-65 5 -75 11 -11 5 -25 6 -32 2z m4246 -2938 c-4 -3 0 -14 9 -24 10 -12 14
-25 9 -36 -4 -10 -8 -63 -10 -119 -1 -55 -5 -106 -9 -112 -3 -6 -2 -13 4 -17
16 -10 13 -188 -2 -182 -7 2 -12 10 -10 16 1 7 -4 31 -12 54 -16 48 -13 254 4
271 14 14 13 62 -2 86 -11 17 -10 22 0 29 7 4 12 12 11 17 -2 14 0 24 8 24 3
0 3 -3 0 -7z"/>
<path d="M13940 13147 c-20 -42 -21 -52 -11 -94 8 -30 9 -48 2 -52 -10 -7 1
-122 18 -189 6 -20 12 -57 15 -82 2 -25 5 -48 5 -51 1 -4 11 -9 22 -12 21 -6
21 -10 14 -64 -4 -32 -8 -74 -9 -93 0 -42 24 -149 36 -156 11 -7 10 -82 -2
-89 -5 -3 -9 -21 -9 -38 l1 -32 7 30 6 30 17 -23 c10 -15 18 -19 23 -13 9 16
-6 105 -19 113 -7 5 -6 8 3 8 11 0 9 4 -5 15 -12 9 -14 14 -6 15 7 0 10 5 7
11 -4 6 0 16 9 22 20 15 32 98 17 123 -9 16 -10 13 -11 -22 0 -39 -22 -85 -35
-73 -3 4 0 40 8 80 15 85 5 260 -19 318 -12 29 -16 32 -30 20 -14 -11 -16 -10
-13 11 2 14 -5 40 -14 58 -12 22 -15 38 -9 49 6 9 8 35 5 57 -3 33 -2 38 7 24
6 -10 16 -18 22 -18 13 0 6 119 -9 128 -5 4 -12 14 -15 22 -3 10 -13 -2 -28
-33z"/>
<path d="M7493 12907 c-3 -5 1 -14 8 -19 10 -6 -1 -8 -33 -5 -27 3 -48 1 -48
-3 0 -8 -14 -9 -88 -9 -38 0 -75 -18 -66 -32 3 -6 13 -8 21 -4 13 4 14 3 3
-10 -7 -8 -19 -15 -26 -15 -8 0 -14 -4 -14 -8 0 -5 -10 -14 -22 -20 -21 -10
-20 -11 15 -11 57 -1 44 -18 -20 -25 -32 -4 -71 -13 -88 -20 l-29 -12 41 -25
42 -25 -42 -11 c-33 -9 -45 -18 -54 -42 -6 -17 -8 -31 -4 -31 8 0 7 -47 -1
-56 -4 -3 -15 -1 -26 5 -13 7 -22 7 -30 -1 -19 -19 -14 -48 8 -56 20 -8 20 -8
-5 -30 -14 -12 -29 -22 -33 -22 -13 0 -32 -47 -32 -78 0 -16 -5 -33 -12 -40
-8 -8 -9 -18 -1 -34 6 -14 7 -32 2 -46 -5 -13 -11 -47 -13 -74 -3 -41 -9 -54
-27 -64 -13 -7 -19 -14 -14 -14 6 0 4 -4 -4 -9 -8 -6 -10 -14 -5 -22 27 -44 2
-115 -37 -103 -11 3 -15 -2 -15 -18 1 -17 -6 -24 -29 -28 -18 -4 -29 -12 -27
-19 2 -8 -5 -22 -15 -33 -10 -11 -18 -37 -19 -61 -2 -72 -13 -111 -35 -128
-14 -10 -21 -27 -21 -45 0 -16 -6 -39 -14 -51 -8 -12 -14 -33 -14 -46 0 -13
-6 -32 -14 -42 -9 -13 -11 -26 -6 -36 10 -18 8 -89 -2 -83 -9 6 -22 -62 -14
-75 4 -5 27 -13 51 -17 54 -8 69 -24 23 -24 -22 0 -41 -9 -57 -25 -12 -14 -26
-23 -30 -21 -4 3 -8 -4 -8 -15 -1 -10 2 -19 8 -19 17 0 9 -32 -12 -51 -20 -17
-19 -18 36 -24 56 -7 147 -2 176 9 9 4 23 -1 33 -13 10 -11 24 -17 31 -15 17
7 58 -61 57 -96 -1 -27 0 -28 36 -18 42 12 81 38 82 55 0 19 70 55 85 43 6 -5
15 -7 18 -3 7 7 15 -11 20 -45 4 -30 21 -40 55 -35 15 2 111 5 215 8 103 2
191 6 195 9 4 2 49 6 100 7 51 2 95 6 98 11 3 4 20 8 39 8 19 0 46 5 61 11 16
5 60 11 100 12 42 1 78 8 87 15 9 8 36 16 59 19 24 2 52 8 63 13 63 26 108 40
130 40 13 0 27 5 30 10 12 20 86 -3 119 -36 15 -15 19 -15 41 0 14 9 25 21 25
27 0 6 7 3 16 -5 10 -11 21 -13 32 -8 9 5 38 10 65 11 36 1 47 -2 47 -13 0 -8
8 -20 18 -25 12 -8 13 -10 3 -11 -8 0 -12 -3 -8 -6 3 -4 -5 -28 -18 -54 -23
-45 -24 -51 -10 -84 8 -19 19 -37 25 -41 5 -3 10 -17 10 -31 0 -24 13 -30 65
-26 18 2 18 0 -4 -17 -16 -12 -20 -21 -12 -25 6 -4 15 -4 21 -1 5 3 12 -7 16
-22 4 -15 11 -33 16 -39 5 -8 3 -18 -7 -27 -8 -9 -15 -23 -15 -31 0 -9 -8 -16
-17 -16 -15 0 -15 -2 -4 -9 9 -6 11 -15 6 -27 -5 -11 -8 -22 -7 -25 1 -4 -7
-14 -18 -24 -10 -9 -16 -23 -13 -31 3 -8 -1 -24 -9 -37 -8 -12 -18 -34 -22
-49 -3 -16 -10 -28 -15 -28 -5 0 -13 -15 -16 -32 -5 -23 -35 -61 -96 -123 -49
-49 -97 -101 -106 -115 -10 -14 -28 -36 -41 -50 -13 -14 -30 -37 -38 -52 -8
-16 -19 -28 -24 -28 -9 0 -20 -28 -25 -63 -1 -12 -7 -34 -13 -48 -21 -51 -14
-169 9 -169 5 0 9 -7 9 -16 0 -9 17 -22 40 -31 41 -17 49 -30 28 -51 -9 -9 -8
-12 5 -12 9 0 16 -6 14 -12 -1 -9 10 -12 34 -11 33 2 36 0 32 -18 -4 -12 0
-25 8 -31 10 -7 9 -8 -6 -4 -16 5 -33 -7 -70 -44 -27 -28 -55 -50 -61 -50 -7
0 -36 -22 -65 -50 -43 -41 -50 -52 -40 -64 9 -11 10 -20 1 -35 -9 -17 -20 -21
-61 -21 -28 0 -59 -5 -70 -10 -15 -8 -29 -5 -63 14 l-44 24 -23 -26 c-23 -27
-27 -71 -8 -83 5 -3 -4 -18 -21 -34 -33 -32 -39 -21 -14 27 19 36 5 58 -16 26
-21 -31 -119 -128 -129 -128 -5 0 -12 -12 -16 -27 -10 -40 -136 -234 -147
-227 -4 3 -12 -5 -18 -16 -8 -16 -7 -25 4 -42 17 -24 12 -63 -11 -90 -12 -13
-12 -18 -1 -29 18 -17 12 -195 -8 -224 -8 -11 -14 -27 -14 -36 0 -16 28 -79
39 -89 3 -3 6 -11 7 -17 1 -7 2 -19 3 -26 0 -8 12 -20 26 -27 14 -7 25 -22 25
-32 0 -11 5 -28 10 -39 10 -18 12 -18 35 -3 23 15 24 15 39 -20 17 -40 23 -43
52 -22 24 18 51 2 33 -20 -8 -10 -6 -20 10 -40 22 -27 29 -92 12 -109 -13 -15
-20 -90 -9 -108 12 -22 4 -22 -17 0 -16 15 -17 14 -15 -13 1 -16 1 -31 0 -34
-1 -3 -4 -18 -6 -35 -11 -67 -45 -56 -43 13 3 72 0 102 -10 102 -5 0 -12 -11
-15 -25 -4 -14 -11 -23 -16 -20 -5 3 -14 -12 -19 -33 -11 -39 -40 -75 -57 -70
-5 1 -19 -3 -31 -10 -19 -10 -23 -9 -28 8 -3 11 -11 20 -16 20 -6 0 -7 -4 -4
-10 8 -13 -1 -13 -26 0 -18 10 -21 7 -21 -20 0 -3 -9 -14 -20 -25 -19 -19 -19
-19 -25 4 l-6 23 -13 -23 c-12 -22 -13 -23 -20 -5 -5 13 -2 23 9 31 21 15 22
25 3 25 -10 0 -12 7 -9 21 6 21 7 21 19 4 8 -10 15 -17 17 -14 36 44 50 96 24
86 -9 -3 -11 6 -9 34 4 43 -10 69 -38 69 -16 0 -17 3 -3 42 15 43 11 74 -8 62
-6 -3 -22 -1 -35 6 -27 15 -54 0 -54 -31 0 -10 -4 -21 -10 -24 -13 -8 -13 11
1 37 10 18 9 20 -6 14 -12 -4 -16 -2 -12 8 3 8 0 20 -8 26 -10 8 -11 17 -2 40
13 34 19 36 37 15 9 -10 9 -15 1 -15 -6 0 -11 -7 -11 -15 0 -29 36 -11 41 20
2 11 0 26 -5 33 -4 7 -2 19 5 28 18 22 5 27 -28 11 -15 -8 -33 -13 -38 -10 -6
2 -15 -11 -20 -29 -6 -18 -16 -32 -23 -31 -6 2 -11 -2 -9 -8 1 -6 -4 -14 -12
-17 -9 -3 -11 0 -6 8 5 8 4 11 -3 6 -6 -3 -13 -2 -17 3 -7 12 35 52 46 45 4
-2 6 5 4 17 -3 13 -10 26 -16 30 -6 4 -8 12 -5 18 5 7 -2 11 -17 11 -13 0 -34
11 -47 25 l-24 26 -23 -26 c-25 -26 -38 -31 -47 -16 -8 12 23 71 40 78 8 3 14
19 14 40 0 28 -3 34 -16 29 -8 -3 -13 -2 -10 3 3 5 -1 14 -8 21 -20 16 -48
-27 -48 -73 0 -30 -3 -33 -23 -29 -20 3 -22 8 -15 36 5 21 3 39 -5 50 -12 16
-15 15 -40 -10 -32 -32 -46 -94 -21 -94 24 0 20 -28 -14 -91 -23 -44 -29 -66
-25 -99 2 -23 1 -40 -2 -36 -3 3 -14 1 -24 -5 -18 -9 -19 -4 -19 89 0 71 5
111 17 138 9 22 16 47 14 56 -1 11 10 22 33 32 32 13 34 17 30 49 -3 30 0 36
19 41 12 3 32 22 45 42 16 24 28 34 39 30 13 -5 14 -1 9 25 -3 18 -1 38 5 45
9 11 14 10 28 -8 17 -21 18 -21 48 -3 21 12 35 33 48 71 10 30 24 54 32 54 7
0 13 7 13 16 0 9 7 22 16 29 10 6 18 24 20 38 1 15 6 37 9 48 5 15 4 19 -5 14
-8 -5 -7 0 2 15 11 18 11 23 0 27 -9 4 -10 8 -2 18 11 13 3 71 -8 61 -10 -11
-32 17 -32 40 0 19 -5 24 -25 24 -23 0 -25 4 -25 44 0 25 -5 48 -10 51 -6 4
-8 11 -5 16 10 15 22 10 28 -11 3 -11 11 -19 19 -18 7 2 12 -3 11 -9 -6 -27
28 -9 46 24 8 16 8 24 -1 29 -7 5 -8 3 -4 -5 6 -8 2 -11 -10 -9 -12 2 -18 -2
-16 -10 1 -8 -2 -11 -8 -7 -8 5 -7 11 1 21 11 13 6 18 -15 15 -5 -1 -6 5 -2
14 3 9 6 20 6 23 0 4 5 0 10 -8 8 -13 10 -12 10 3 0 9 -4 17 -10 17 -5 0 -10
5 -10 10 0 6 9 10 20 10 26 0 26 16 -1 23 -16 4 -19 11 -14 26 5 15 2 21 -9
21 -9 0 -16 7 -16 15 0 8 -6 15 -14 15 -8 0 -18 9 -21 21 -7 19 -7 20 -21 2
-8 -11 -13 -13 -14 -5 0 6 -6 12 -14 12 -7 0 -19 7 -27 16 -12 14 -14 14 -21
-6 -9 -24 -27 -19 -24 8 2 11 13 18 34 20 29 3 47 22 22 22 -6 0 3 14 20 30
l31 30 -36 0 c-20 0 -43 -7 -52 -15 -21 -22 -46 -15 -53 14 -6 26 -28 41 -27
19 1 -37 -4 -47 -19 -41 -14 5 -15 0 -9 -37 6 -36 5 -42 -8 -37 -19 7 -33 -25
-36 -83 -1 -24 -6 -49 -10 -55 -5 -5 -7 -24 -5 -42 2 -18 -1 -35 -8 -39 -7 -5
-9 0 -6 13 3 12 2 27 -3 34 -4 7 -3 19 2 25 6 7 6 15 1 18 -10 6 -43 -30 -35
-38 4 -3 -1 -6 -10 -6 -22 0 -22 -16 -1 -24 15 -6 14 -10 -6 -31 -13 -14 -20
-25 -15 -25 4 0 0 -9 -10 -20 -16 -18 -16 -20 -2 -20 10 0 17 -6 17 -13 0 -16
-41 -57 -57 -57 -6 0 -20 -15 -32 -32 -11 -18 -21 -28 -21 -21 0 7 -7 10 -15
7 -8 -4 -15 -17 -15 -31 0 -13 -4 -21 -10 -18 -5 3 -10 2 -10 -4 0 -5 6 -12
13 -15 6 -3 2 -3 -10 0 -18 4 -23 1 -23 -14 0 -11 7 -25 15 -32 10 -9 12 -17
5 -30 -7 -13 -5 -22 7 -31 10 -8 14 -9 10 -2 -4 6 1 18 12 25 11 8 25 26 30
41 7 18 15 25 26 21 18 -7 19 -18 2 -36 -22 -22 -29 -51 -15 -60 10 -6 9 -8
-2 -8 -9 0 -16 -10 -17 -22 -2 -20 -10 -41 -33 -88 -8 -17 13 -54 24 -43 9 9
-4 -28 -14 -42 -5 -5 -7 -34 -6 -63 1 -38 -3 -52 -13 -52 -8 0 -11 6 -6 18 5
13 3 14 -6 5 -14 -14 -21 -103 -8 -103 6 0 7 -15 3 -36 -8 -43 11 -40 27 4
l10 26 27 -34 c31 -39 45 -70 32 -70 -17 0 -40 -63 -40 -109 0 -33 3 -42 10
-31 8 12 10 10 10 -8 0 -13 4 -20 10 -17 6 4 7 -2 1 -17 -4 -13 -11 -49 -15
-80 -4 -31 -14 -62 -22 -69 -16 -13 -18 -47 -4 -69 9 -13 12 -13 24 3 14 18
14 18 21 -2 3 -12 4 -25 1 -30 -7 -11 21 -66 47 -93 18 -19 19 -19 32 -1 13
17 14 17 20 1 4 -10 5 -25 1 -33 -3 -8 -1 -15 5 -15 5 0 4 -6 -3 -14 -7 -8
-15 -12 -17 -10 -8 7 -31 -18 -31 -34 0 -11 8 -8 30 13 17 16 30 23 30 17 0
-7 5 -12 11 -12 6 0 9 9 6 20 -3 10 0 24 7 29 17 14 52 -97 36 -113 -8 -8 -12
-4 -16 12 -8 29 -45 31 -39 2 2 -11 6 -24 10 -29 3 -5 1 -22 -5 -36 -8 -22 -7
-30 5 -39 11 -8 16 -29 16 -69 1 -56 2 -57 30 -57 16 0 30 6 30 13 1 6 2 21 3
32 1 22 37 85 48 85 16 0 12 -37 -7 -58 -11 -13 -21 -31 -21 -40 -1 -9 -5 -25
-9 -34 -4 -11 -3 -18 5 -18 6 0 10 -10 8 -24 -1 -13 4 -31 11 -40 17 -20 7
-33 -29 -38 -20 -2 -25 -9 -25 -30 -1 -15 -9 -36 -20 -47 -18 -21 -18 -21 3
-21 15 0 24 8 28 25 4 16 13 25 26 25 17 0 19 -5 13 -30 -5 -25 -4 -29 9 -24
9 3 16 2 16 -4 0 -5 9 -12 20 -15 25 -6 27 -45 3 -54 -10 -4 -22 -11 -28 -15
-41 -33 -58 -48 -45 -42 13 7 13 5 1 -9 -10 -13 -11 -20 -2 -30 8 -10 7 -17
-1 -25 -9 -9 -8 -12 5 -12 27 0 31 -26 8 -59 -27 -37 -26 -45 4 -61 14 -7 25
-17 25 -22 0 -13 68 -9 73 5 4 9 6 9 6 -1 1 -19 -50 -64 -66 -58 -8 3 -13 -2
-13 -14 0 -13 7 -20 19 -20 12 0 18 -7 17 -17 -1 -15 7 -18 47 -17 27 0 52 6
56 12 9 15 50 20 50 7 0 -5 -9 -10 -19 -9 -11 0 -20 -3 -20 -8 0 -4 14 -8 30
-8 23 0 30 5 30 19 0 26 40 112 49 107 5 -3 2 -29 -7 -58 -8 -29 -15 -62 -16
-74 -5 -45 -24 -50 -184 -46 -59 1 -91 -2 -87 -8 3 -6 14 -10 24 -10 10 0 24
-7 31 -15 16 -19 31 -19 24 0 -4 8 -2 15 3 15 13 0 32 -56 23 -70 -5 -9 -16
-8 -43 4 -22 9 -39 11 -42 5 -4 -5 -16 -9 -28 -10 -12 0 3 -7 33 -15 85 -22
82 -21 69 -45 -9 -17 -8 -31 1 -60 15 -45 5 -64 -16 -34 -14 19 -16 19 -25 3
-6 -10 -18 -18 -27 -18 -13 -1 51 -29 67 -30 2 0 1 -6 -2 -14 -3 -8 1 -20 9
-26 16 -14 19 -35 4 -25 -16 10 -69 -17 -63 -32 3 -7 9 -13 14 -13 9 0 49 -36
49 -45 0 -3 -7 -5 -15 -5 -8 0 -15 -5 -15 -11 0 -5 -4 -8 -9 -4 -5 3 -13 1
-16 -5 -4 -6 -1 -9 6 -8 7 2 19 -10 28 -25 15 -26 15 -29 -3 -42 -14 -11 -17
-20 -11 -42 5 -15 8 -31 7 -35 -1 -5 2 -8 8 -8 5 0 10 -11 10 -25 0 -19 -5
-25 -16 -23 -10 2 -18 -5 -20 -17 -1 -11 -10 -25 -18 -31 -19 -13 -21 -41 -4
-46 7 -3 9 -12 5 -22 -6 -15 -10 -16 -22 -6 -17 14 -15 17 -20 -57 -2 -24 1
-43 6 -43 5 0 8 -16 6 -35 -3 -19 0 -35 4 -35 5 0 9 -10 8 -22 0 -13 -3 -17
-6 -10 -5 14 -33 17 -33 3 0 -6 5 -13 10 -16 7 -4 7 -13 0 -26 -6 -10 -8 -19
-4 -19 3 0 1 -7 -6 -15 -7 -9 -10 -18 -7 -22 4 -3 -1 -12 -11 -19 -16 -13 -16
-13 3 -14 15 0 16 -3 7 -12 -16 -16 -15 -28 2 -28 12 0 13 -6 4 -30 -11 -34
-30 -50 -36 -31 -3 9 -7 9 -18 0 -8 -6 -14 -15 -14 -20 0 -8 33 -4 50 6 15 9
40 -14 33 -31 -4 -10 -10 -11 -25 -3 -16 9 -19 8 -13 -3 6 -10 5 -11 -6 0 -7
6 -25 12 -40 12 -28 0 -67 38 -51 50 4 3 14 14 22 24 14 18 13 19 -2 13 -17
-6 -40 20 -37 40 4 26 -3 43 -19 43 -20 0 -43 52 -38 85 2 11 -2 23 -8 27 -16
10 -24 138 -25 367 -1 152 -4 202 -12 194 -8 -8 -18 -8 -35 -1 -17 8 -31 7
-54 -2 l-31 -13 22 -23 c11 -12 20 -27 18 -32 -7 -16 -92 -114 -157 -179 -62
-63 -63 -64 -99 -54 -30 9 -42 7 -62 -6 -24 -15 -24 -17 -7 -27 10 -6 28 -18
40 -28 21 -16 21 -16 2 -65 -10 -26 -34 -92 -53 -145 -35 -95 -36 -96 -61 -87
-18 7 -35 6 -54 -2 -30 -12 -38 -39 -13 -39 29 0 74 -30 89 -58 9 -17 16 -77
20 -162 4 -74 9 -168 12 -209 l6 -75 -46 45 c-58 54 -86 67 -86 38 0 -13 11
-25 34 -34 49 -21 98 -95 104 -158 3 -27 8 -43 12 -37 5 8 12 0 19 -21 13 -38
9 -46 -12 -24 -22 22 -30 19 -24 -11 3 -16 0 -28 -9 -31 -9 -3 -14 -20 -14
-45 0 -52 -29 -138 -46 -138 -10 0 -14 -13 -14 -41 0 -42 27 -112 40 -104 4 2
10 39 13 82 4 43 15 110 25 148 15 57 22 71 40 73 17 3 22 -3 27 -35 4 -21 13
-58 21 -83 16 -52 23 -136 28 -330 3 -118 1 -139 -15 -166 -23 -38 -24 -64 -4
-90 13 -18 14 -16 15 23 0 23 4 44 10 48 9 5 40 -82 40 -114 0 -13 9 -45 28
-101 3 -8 7 -24 9 -35 7 -40 12 -46 37 -39 20 5 27 0 38 -23 7 -15 23 -32 36
-38 12 -5 22 -18 22 -30 -1 -18 -2 -18 -11 -3 -11 20 -40 13 -32 -8 3 -8 15
-15 27 -15 16 -1 17 -2 4 -6 -22 -6 -23 -17 -2 -48 8 -13 22 -21 29 -19 8 3
20 -4 27 -15 20 -32 38 -25 55 19 14 34 20 39 37 34 38 -11 41 -9 40 24 0 30
3 33 23 29 28 -5 35 12 15 36 -13 14 -14 20 -3 26 7 4 14 14 15 22 5 25 19 54
30 61 7 5 7 8 -1 8 -18 0 -16 25 2 40 12 10 13 15 4 20 -13 9 -3 30 14 30 11
0 16 93 7 125 -6 22 1 35 18 35 16 1 16 1 0 14 -27 20 -23 41 4 22 29 -21 44
-21 24 0 -19 18 -20 36 -5 51 7 7 13 27 14 45 3 37 39 72 67 64 14 -3 22 3 29
21 13 36 2 45 -32 28 l-30 -16 2 38 c3 48 18 83 36 83 7 0 13 5 13 11 0 5 -5
7 -12 3 -6 -4 -8 -3 -4 4 3 6 1 22 -6 37 -8 19 -14 22 -21 13 -6 -9 -7 -6 -2
7 4 11 10 28 12 38 3 10 11 16 17 14 10 -3 36 16 36 27 0 3 -9 6 -19 6 -23 0
-40 22 -23 28 15 5 16 42 1 42 -6 0 -9 6 -6 13 2 6 0 21 -6 32 -6 11 -12 37
-14 58 -3 34 -1 38 19 35 27 -4 37 22 10 29 -23 6 -36 29 -22 38 6 4 10 11 10
17 0 6 -3 8 -7 5 -7 -8 -33 11 -33 24 0 5 7 9 16 9 8 0 12 4 9 10 -3 5 4 10
16 10 18 0 19 3 9 15 -6 8 -9 23 -5 35 5 14 2 20 -9 20 -9 0 -16 3 -16 8 1 12
27 42 38 42 18 0 22 29 4 39 -9 5 -14 13 -10 17 4 4 14 2 21 -5 8 -6 22 -9 31
-5 12 4 16 0 16 -15 0 -12 -5 -21 -12 -21 -15 0 0 -15 15 -15 7 -1 11 -7 9
-14 -1 -7 2 -10 7 -7 5 4 12 2 15 -3 4 -5 2 -12 -4 -16 -21 -13 -9 -27 18 -21
15 3 21 3 15 0 -19 -8 -16 -24 5 -24 11 0 13 -3 6 -8 -7 -4 -8 -15 -3 -28 10
-29 25 -37 46 -25 10 6 13 11 7 11 -6 0 -9 13 -6 30 4 26 6 28 25 18 16 -8 22
-8 25 1 2 6 8 11 13 11 6 0 8 -4 5 -9 -3 -4 4 -17 15 -26 18 -18 21 -18 36 -2
16 16 16 17 -7 17 -17 0 -21 3 -12 9 16 10 60 3 69 -12 3 -5 1 -7 -5 -3 -15 9
-26 -12 -13 -28 6 -7 9 -15 6 -18 -3 -3 6 -10 20 -16 14 -6 24 -8 24 -4 -4 25
2 34 15 23 7 -6 20 -9 28 -6 10 4 17 -1 21 -14 3 -13 13 -21 26 -21 19 0 40
-24 38 -45 0 -5 7 -11 16 -13 9 -2 17 1 17 7 0 5 12 8 28 6 15 -2 30 -4 35 -4
4 -1 7 -8 7 -16 0 -16 20 -22 95 -30 28 -2 59 -6 69 -7 14 -2 21 4 25 21 6 21
8 22 19 8 7 -8 21 -13 30 -10 12 3 22 -4 30 -21 10 -23 9 -26 -9 -26 -18 0
-19 2 -9 15 11 13 10 14 -11 7 -14 -5 -24 -17 -24 -28 0 -27 84 -29 94 -2 6
16 9 17 27 3 24 -16 38 -55 21 -55 -7 0 -1 -6 13 -13 20 -10 24 -20 23 -45 -3
-35 11 -49 32 -32 8 7 16 7 19 1 3 -5 15 -7 26 -4 14 4 20 0 20 -10 0 -9 5
-19 11 -23 13 -8 31 15 25 32 -10 26 11 35 36 15 13 -11 37 -23 51 -26 26 -7
31 -15 28 -44 -2 -7 2 -10 9 -6 9 6 9 2 1 -12 -8 -17 -5 -24 20 -42 34 -25 71
-35 100 -26 25 8 24 23 -3 48 l-23 19 25 -7 c14 -4 34 -19 46 -33 14 -17 27
-24 42 -20 14 4 19 2 16 -7 -6 -13 54 -65 74 -65 10 0 18 -44 13 -72 0 -5 3
-8 9 -8 5 0 10 -5 10 -11 0 -13 51 -69 64 -69 14 0 52 -46 48 -58 -2 -6 10
-20 27 -30 17 -10 28 -22 24 -25 -6 -7 0 -9 30 -11 6 -1 18 -7 25 -13 7 -7 24
-13 37 -13 15 0 41 -17 67 -42 38 -38 48 -43 90 -43 56 0 66 8 43 31 -9 9 -15
25 -12 34 2 10 -4 25 -14 34 -18 15 -16 46 3 46 6 0 8 6 5 13 -3 7 3 19 14 25
14 9 17 9 13 -2 -4 -11 34 -46 51 -46 16 0 2 43 -15 47 -20 5 -26 23 -13 36 3
4 17 0 30 -9 13 -8 32 -14 41 -13 25 4 92 -21 89 -33 -1 -5 8 -14 21 -19 13
-5 22 -5 22 1 0 6 -4 10 -10 10 -5 0 -10 9 -10 21 0 11 5 17 10 14 6 -3 10 -1
10 4 0 6 -4 11 -10 11 -5 0 -10 14 -10 30 0 22 -5 30 -18 30 -10 0 -28 7 -40
16 -14 9 -31 13 -45 8 -12 -3 -19 -3 -15 1 11 12 -26 35 -49 31 -15 -3 -19 1
-19 17 1 13 -5 22 -14 22 -8 0 -14 -6 -12 -13 3 -17 -13 -15 -28 3 -7 8 -18
15 -25 15 -7 0 -18 6 -24 14 -10 12 -8 15 11 18 13 2 33 -3 45 -10 12 -8 27
-11 33 -7 5 3 13 -1 16 -9 9 -24 43 -19 56 8 16 35 37 40 44 11 3 -14 12 -25
20 -25 10 0 12 5 5 18 -6 9 -12 30 -16 45 -5 23 -9 26 -20 17 -8 -6 -16 -7
-19 -2 -8 14 21 35 38 29 8 -3 24 3 36 13 13 11 27 17 32 14 4 -3 7 0 6 8 -2
10 9 12 45 10 29 -3 47 0 47 7 0 10 -7 13 -26 10 -7 -1 -24 22 -24 33 0 4 8 7
18 7 9 0 67 2 127 4 86 3 114 1 127 -11 11 -9 24 -12 35 -7 10 5 24 7 30 6 7
-1 21 2 31 8 12 6 24 5 37 -2 22 -13 65 -17 65 -6 0 4 -7 12 -15 19 -8 7 -15
17 -15 22 0 5 -10 18 -22 28 -29 23 -19 35 16 19 21 -10 34 -10 59 -1 25 9 41
8 73 -3 22 -7 57 -12 77 -10 21 1 40 -1 43 -6 6 -11 24 -12 23 -1 -3 19 3 22
21 12 17 -9 20 -8 20 10 0 12 7 20 17 20 14 0 13 3 -5 23 -12 13 -22 27 -22
32 0 4 -8 14 -17 21 -17 11 -16 13 10 23 15 6 27 18 28 28 0 14 2 13 9 -4 6
-15 18 -23 34 -23 14 0 28 -4 31 -10 10 -16 35 -12 35 5 0 13 4 14 20 5 22
-12 28 -33 8 -28 -7 2 -15 -2 -17 -7 -3 -6 3 -11 11 -13 15 -3 37 11 74 46 11
10 15 9 24 -8 20 -38 30 -20 10 19 -21 43 -14 59 20 41 15 -8 20 -8 20 1 0 7
9 9 26 5 14 -4 31 -3 37 2 7 5 29 15 50 21 21 7 37 19 37 28 0 9 6 13 14 10
26 -10 39 19 22 45 -14 22 -14 25 5 36 18 12 20 10 17 -15 -3 -24 0 -28 19
-26 30 3 63 33 63 56 0 12 5 17 14 14 7 -3 26 1 41 9 32 17 46 6 37 -29 -3
-14 -1 -18 6 -13 7 4 12 17 12 29 0 16 3 18 12 9 7 -7 22 -12 34 -12 13 0 26
-4 29 -10 3 -5 12 -10 18 -10 8 1 7 5 -3 13 -16 12 -15 57 0 57 5 0 14 -9 20
-20 11 -20 37 -18 52 4 5 7 8 4 8 -7 0 -15 2 -16 13 -5 7 7 16 21 20 32 4 11
13 16 23 12 9 -3 12 -2 9 5 -4 5 -4 21 -1 34 4 17 11 22 25 18 16 -4 19 -1 14
16 -4 15 -1 21 11 21 9 0 16 -4 16 -10 0 -5 6 -10 14 -10 12 0 13 -7 5 -32
-11 -39 -4 -47 19 -22 23 24 35 54 22 54 -6 0 -10 -7 -10 -15 0 -8 -4 -15 -10
-15 -17 0 -11 15 15 40 15 14 25 18 25 11 0 -10 3 -11 14 -2 11 9 15 9 18 0 8
-23 28 2 28 34 0 23 3 28 9 18 7 -11 14 -8 36 15 15 16 31 28 36 26 5 -1 8 1
8 5 -4 25 3 35 21 30 11 -3 30 3 45 15 13 10 39 22 58 25 46 7 72 32 112 108
8 15 19 19 46 17 32 -3 40 3 109 79 83 91 131 139 141 139 7 0 31 51 26 57 -8
8 -37 -10 -37 -22 0 -15 -18 -30 -27 -22 -8 8 56 117 69 117 6 0 8 -9 5 -20
-3 -11 -1 -20 4 -20 17 0 33 46 34 100 1 30 5 69 9 85 6 24 5 26 -4 13 -6 -10
-20 -22 -30 -28 -33 -17 -25 24 11 62 17 18 28 28 26 23 -3 -6 -2 -17 4 -25 7
-13 9 -13 9 1 0 22 46 64 55 50 11 -19 25 -12 25 14 0 14 5 25 10 25 6 0 10 7
10 15 0 9 -9 15 -25 15 -16 0 -25 6 -25 15 0 8 6 15 14 15 21 0 29 17 11 24
-8 3 -21 -1 -29 -9 -19 -20 -34 -19 -38 2 -4 20 21 48 51 58 12 4 18 12 14 21
-3 9 9 29 31 51 20 20 36 40 36 45 0 4 9 8 19 8 27 0 35 17 17 36 -15 14 -17
14 -22 0 -3 -9 -11 -16 -16 -16 -6 0 -21 -11 -34 -25 -13 -14 -30 -25 -38 -25
-8 0 -17 -4 -21 -9 -12 -20 -63 -38 -94 -33 -17 2 -31 6 -31 9 0 12 47 42 66
43 44 0 84 13 84 26 0 8 5 14 10 14 6 0 10 10 10 21 0 12 13 37 30 56 16 18
30 38 30 43 0 19 -24 22 -36 5 -8 -11 -27 -18 -49 -18 -46 -1 -46 16 -1 26 20
5 36 13 36 17 0 14 30 20 55 10 21 -8 27 -6 32 8 3 9 16 26 27 37 l21 20 -30
3 c-17 2 -34 8 -39 13 -6 5 -27 9 -47 9 -21 0 -41 5 -44 10 -3 6 3 10 14 10
11 0 23 4 26 10 3 6 22 10 41 10 19 0 34 5 34 10 0 6 -11 10 -25 10 -24 0 -32
10 -18 23 3 4 13 1 21 -6 9 -6 6 2 -7 19 -14 19 -19 37 -15 48 6 16 9 15 30
-11 21 -25 23 -26 24 -8 0 38 -12 64 -26 58 -15 -6 -16 -5 -19 51 -2 30 2 40
17 44 15 3 16 7 7 19 -9 10 -9 20 -1 37 9 20 7 27 -16 45 -14 11 -32 21 -39
21 -7 0 -13 11 -13 25 0 14 -4 25 -10 25 -5 0 -10 -4 -10 -10 0 -17 -22 -11
-47 12 l-23 21 0 -25 c0 -21 4 -25 19 -21 13 3 20 -2 26 -19 4 -13 7 -27 6
-31 -1 -5 3 -6 8 -3 5 4 12 -8 16 -25 4 -17 16 -47 27 -66 23 -38 22 -41 -13
-45 -18 -2 -23 1 -21 14 1 9 -13 38 -33 63 -25 34 -35 42 -37 28 0 -10 -2 -24
-2 -30 -2 -17 -21 -17 -21 0 0 6 -7 17 -16 24 -18 14 -34 73 -22 82 5 3 15 20
24 36 9 18 23 29 33 28 12 -1 15 4 12 14 -3 8 -6 24 -6 35 0 19 0 19 -26 -1
-41 -32 -54 -27 -54 20 0 32 3 40 15 35 26 -10 18 44 -11 70 -14 14 -22 29
-18 35 7 12 16 62 16 89 0 45 -15 157 -23 173 -7 13 -4 28 12 57 l23 40 -21
22 c-12 13 -24 44 -28 70 -6 40 -4 49 9 54 10 4 15 13 12 20 -3 8 -2 13 2 13
4 -1 12 -1 17 0 12 1 65 46 65 55 0 15 -34 44 -46 39 -8 -3 -14 0 -14 6 0 26
-18 8 -24 -24 -9 -45 -18 -49 -37 -16 -15 25 -15 31 -1 62 8 19 14 38 13 42
-5 24 -12 78 -17 127 -4 30 -13 60 -21 67 -9 7 -11 13 -4 18 6 3 11 13 11 21
0 9 7 22 15 31 12 11 13 19 5 28 -8 10 -8 15 1 21 7 4 15 2 17 -4 4 -14 22 -6
22 9 0 6 -4 7 -10 4 -5 -3 -10 -1 -10 4 0 6 4 11 9 11 5 0 12 17 16 38 4 20
10 42 15 47 4 6 13 28 20 50 7 22 18 49 25 61 7 11 15 36 18 55 2 19 9 48 16
64 21 51 24 143 6 162 -11 11 -13 18 -6 23 20 11 16 76 -6 106 -11 16 -24 40
-28 54 -12 43 -78 174 -101 200 -12 14 -41 48 -65 76 -95 109 -111 130 -124
160 -8 17 -30 42 -49 55 -20 13 -36 29 -36 34 0 6 -12 21 -25 34 -14 12 -22
27 -19 32 3 5 -8 25 -25 45 -17 19 -31 39 -31 44 0 6 -7 10 -15 10 -8 0 -15 7
-15 15 0 8 -4 15 -9 15 -5 0 -11 12 -13 28 -2 15 -8 26 -15 25 -6 -2 -15 6
-18 17 -4 11 -12 20 -19 20 -8 0 -19 15 -27 33 -23 57 -57 94 -94 101 -33 7
-57 26 -125 105 -20 23 -44 40 -57 40 -12 1 -24 5 -27 10 -9 14 -56 0 -67 -20
-5 -11 -6 -19 -2 -19 5 0 13 -10 18 -22 6 -13 21 -28 33 -34 15 -7 20 -14 13
-19 -15 -9 15 -60 54 -89 32 -25 57 -48 175 -159 258 -244 319 -312 323 -357
1 -11 9 -23 19 -26 20 -6 24 -19 8 -29 -18 -11 2 -35 29 -35 36 0 101 -64 76
-74 -9 -3 -27 -3 -41 0 -13 3 -37 1 -53 -4 -25 -9 -32 -7 -52 14 -12 13 -28
24 -35 24 -6 0 -19 10 -28 23 l-17 22 5 -22 c5 -28 -8 -38 -24 -18 -7 8 -9 15
-5 15 4 0 2 7 -6 16 -7 8 -21 13 -31 11 -10 -3 -18 -1 -18 4 0 5 -10 8 -22 7
-13 -1 -34 2 -47 6 -16 6 -21 5 -17 -3 4 -6 2 -11 -4 -11 -7 0 -9 7 -6 16 4
10 -1 25 -10 35 -24 26 -37 24 -20 -4 20 -29 7 -49 -33 -51 -26 -1 -29 -3 -15
-13 10 -7 14 -22 12 -40 l-4 -28 -11 25 c-14 32 -129 150 -147 150 -8 0 -16 7
-20 15 -3 8 -14 15 -25 15 -13 0 -24 13 -36 42 -9 24 -31 55 -48 71 -30 26
-32 27 -45 10 -8 -11 -9 -19 -2 -21 5 -2 10 -11 9 -20 0 -10 -3 -12 -5 -5 -4
9 -11 9 -31 0 -23 -10 -28 -8 -54 21 -16 18 -29 41 -29 52 0 22 -36 51 -56 43
-10 -4 -11 -10 -3 -24 14 -27 -12 -26 -29 1 -7 12 -16 18 -21 16 -5 -3 -21 6
-37 21 -16 15 -49 35 -74 44 -39 15 -45 21 -42 44 2 14 12 35 22 45 22 22 26
40 10 40 -5 0 -10 6 -10 12 0 28 -67 109 -110 132 -92 49 -195 43 -311 -21
-55 -30 -100 -80 -77 -87 56 -17 98 -22 107 -13 14 14 139 9 171 -8 42 -22 45
-53 8 -86 -16 -16 -35 -29 -40 -29 -6 0 -8 -7 -4 -15 10 -28 -5 -45 -40 -45
-19 0 -34 4 -34 9 0 17 -82 6 -95 -13 -11 -14 -17 -15 -34 -7 -42 23 -75 14
-110 -32 -27 -37 -36 -43 -62 -39 -17 3 -29 0 -29 -7 0 -6 -11 -10 -25 -9 -23
2 -37 18 -15 18 19 0 34 47 35 113 1 52 -2 67 -13 67 -10 0 -13 8 -10 25 3 13
1 22 -3 19 -5 -3 -9 2 -9 11 0 8 -7 18 -15 21 -8 4 -13 9 -11 13 11 18 -40 51
-79 51 -18 0 -25 -5 -25 -19 0 -21 -16 -30 -42 -23 -13 3 -18 14 -18 37 0 36
-19 58 -47 53 -9 -2 -18 2 -18 7 -2 27 -137 195 -156 195 -8 0 -42 28 -90 72
-16 15 -31 23 -35 17 -4 -7 -10 -6 -18 0 -7 6 -29 9 -49 8 -20 -2 -37 1 -37 5
0 5 -4 7 -9 4 -5 -3 -12 2 -15 11 -5 12 -9 14 -18 5 -7 -7 -20 -12 -30 -12
-10 0 -18 -4 -18 -9 0 -12 -56 -25 -70 -16 -6 4 -5 13 2 25 7 11 8 23 4 27 -5
4 -11 2 -13 -4 -3 -7 -11 -13 -19 -13 -18 0 -18 37 0 47 8 4 15 17 18 28 5 27
32 25 36 -2 4 -26 30 -31 38 -8 8 20 42 29 60 14 8 -6 18 -9 21 -5 4 4 2 10
-4 14 -15 10 7 82 24 82 15 0 17 26 3 35 -5 3 -10 11 -10 16 0 13 42 8 52 -6
13 -18 21 27 9 47 -15 24 -13 26 28 38 20 5 31 5 31 -1 0 -6 5 -7 10 -4 17 10
11 23 -12 30 -44 12 -68 29 -68 47 0 10 7 18 15 18 8 0 15 5 15 10 0 6 -9 10
-20 10 -13 0 -20 7 -20 20 0 11 -5 20 -11 20 -6 0 -7 5 -2 13 15 24 11 36 -17
49 -16 7 -26 16 -24 20 3 4 1 8 -4 8 -16 0 -21 40 -10 66 6 13 14 21 19 19 22
-14 34 9 36 69 0 35 6 73 12 85 8 15 9 27 2 39 -7 10 -11 12 -11 4 0 -21 -20
-3 -20 18 0 11 9 24 21 30 11 7 18 18 15 25 -3 8 0 16 7 18 9 3 9 8 -2 20 -7
9 -11 23 -8 31 3 8 -1 17 -10 20 -10 4 -13 12 -8 24 4 9 9 28 11 42 2 14 6 34
7 44 2 11 -6 38 -17 60 -21 41 -22 59 -25 312 -1 57 -4 63 -45 109 -23 27 -51
70 -62 97 -10 26 -24 48 -31 48 -7 0 -13 7 -13 15 0 9 -7 26 -15 39 -9 13 -14
30 -13 37 2 9 -5 13 -21 11 -17 -2 -22 2 -17 13 3 9 2 13 -4 10 -16 -10 -11
22 6 39 18 18 10 38 -11 30 -11 -4 -14 2 -12 22 1 20 -3 29 -13 29 -8 0 -16 7
-16 15 -1 8 -2 23 -3 33 0 9 -8 17 -16 17 -8 0 -15 4 -15 10 0 5 -6 7 -14 4
-26 -10 -46 84 -32 154 4 17 0 22 -15 22 -11 0 -18 -4 -14 -9 3 -5 -2 -16 -10
-24 -8 -9 -15 -23 -15 -33 0 -35 -37 15 -43 58 -6 47 -26 66 -44 41 -15 -19
-15 -19 -33 26 l-13 33 -19 -23 c-15 -20 -19 -21 -27 -10 -8 12 -12 12 -25 2
-12 -10 -19 -11 -29 -2 -8 6 -18 7 -22 3 -5 -4 -6 -2 -2 3 7 13 -11 36 -47 59
-20 13 -31 15 -34 8 -2 -6 -14 1 -27 15 -12 15 -34 28 -47 28 -14 1 -40 11
-59 23 -19 11 -48 20 -64 20 -17 0 -64 16 -105 37 -74 37 -75 38 -168 32 -51
-4 -97 -9 -102 -12 -6 -4 -15 6 -20 20 -14 36 -14 35 25 33 19 -1 38 2 42 5 6
7 -92 11 -151 7 -16 -1 -36 -8 -43 -16 -19 -19 -124 -22 -131 -4 -2 4 -12 6
-22 3 -11 -3 -20 -1 -20 5 0 8 -15 7 -45 -3 -53 -16 -70 -2 -23 19 l33 14 -30
2 c-16 1 -43 4 -60 6 -69 10 -96 10 -102 1z m198 -588 c11 -6 35 -10 52 -10
31 -1 158 -31 205 -50 13 -5 40 -12 60 -15 48 -8 72 -20 98 -51 17 -20 32 -25
80 -28 32 -2 74 -8 93 -14 34 -11 71 -42 71 -60 0 -13 39 -23 76 -20 47 3 72
0 86 -14 7 -6 26 -17 42 -22 16 -6 29 -14 28 -20 -3 -13 -90 -15 -122 -3 -14
6 -50 12 -80 14 -30 2 -82 6 -115 9 -33 3 -107 -2 -165 -10 -58 -8 -136 -17
-175 -20 -38 -3 -90 -8 -115 -11 -75 -9 -270 -10 -270 -2 0 13 -20 9 -35 -6
-8 -7 -34 -14 -58 -14 -42 -1 -46 1 -62 33 -12 26 -22 35 -41 35 -15 0 -23 4
-19 10 4 6 15 8 26 5 12 -4 19 -2 19 7 -1 19 -23 45 -35 41 -6 -2 -16 6 -22
16 -11 17 -9 23 16 40 16 12 36 21 44 21 20 0 31 -16 17 -25 -5 -3 -10 -13
-10 -21 0 -16 36 -19 45 -4 4 6 11 8 16 5 18 -12 9 11 -16 37 -24 26 -37 54
-14 31 11 -11 49 -6 49 7 0 4 21 11 48 15 54 8 75 21 67 44 -3 10 3 20 18 27
12 5 21 15 20 22 -4 15 51 16 78 1z m633 -363 c91 -25 226 -87 303 -138 23
-15 46 -28 51 -28 8 0 60 -48 89 -84 7 -8 10 -22 7 -30 -7 -18 -39 -21 -49 -6
-3 6 -18 10 -33 10 -28 0 -133 36 -142 49 -11 16 -75 39 -81 30 -7 -12 -31 -8
-41 5 -3 5 -22 10 -42 10 -20 1 -36 3 -36 6 0 3 -10 6 -22 6 -13 1 -43 4 -68
7 -25 4 -88 12 -140 18 -52 6 -103 15 -112 20 -23 12 -45 11 -70 -2 -25 -14
-119 -19 -134 -7 -6 4 -35 3 -65 -3 -79 -16 -149 -20 -149 -9 0 6 -7 10 -15
10 -8 0 -15 7 -15 15 0 16 38 41 57 37 7 -2 23 7 35 18 24 22 153 66 253 86
96 20 311 9 419 -20z m111 -284 c22 -8 58 -30 80 -47 22 -18 52 -35 68 -39 17
-4 27 -13 27 -25 0 -22 -27 -36 -44 -23 -20 16 -66 20 -83 7 -15 -11 -12 -14
27 -25 25 -7 52 -15 60 -18 20 -7 28 -9 41 -11 6 0 8 -10 4 -22 -5 -14 -3 -19
3 -15 17 10 62 -5 62 -20 0 -8 5 -14 10 -14 17 0 11 -27 -17 -69 -15 -23 -34
-41 -42 -41 -13 1 -12 3 3 15 11 8 15 15 9 15 -22 0 -32 -24 -17 -44 18 -25
10 -36 -28 -36 -24 0 -28 -3 -19 -13 9 -11 3 -17 -29 -27 -22 -7 -40 -17 -40
-22 0 -8 36 -12 73 -9 11 2 17 -5 17 -18 0 -12 -5 -21 -11 -21 -6 0 -8 -7 -5
-16 5 -14 4 -15 -8 -5 -10 9 -16 9 -21 1 -5 -8 -13 -6 -25 5 -11 10 -33 16
-52 15 -51 -3 -58 -1 -52 15 4 8 1 15 -5 15 -6 0 -11 -4 -11 -9 0 -5 -12 -11
-27 -14 -16 -3 -48 -11 -73 -17 -50 -13 -141 -5 -152 13 -4 6 -26 10 -53 8
-27 -1 -60 4 -79 13 -29 14 -68 24 -221 58 -61 13 -61 13 -42 32 9 10 23 13
34 9 16 -6 16 -5 5 10 -12 14 -11 16 7 12 12 -2 21 -1 21 3 0 4 11 9 25 10 13
1 48 13 77 27 28 14 60 25 71 25 10 0 32 13 47 30 15 16 36 31 46 33 11 2 30
9 43 16 15 8 38 11 62 7 34 -6 39 -4 39 14 0 11 7 21 15 21 19 2 25 4 47 13
14 6 15 12 8 27 -10 18 -6 152 6 170 7 12 67 3 119 -19z m580 -1362 c-8 -12
50 -25 95 -21 13 1 13 2 0 11 -10 7 -11 10 -2 10 7 0 15 -7 18 -15 4 -8 10
-15 16 -15 5 0 6 5 3 10 -3 6 -1 10 4 10 6 0 11 -4 11 -10 0 -5 13 -13 30 -17
41 -11 24 -36 -26 -37 -35 -1 -39 -4 -39 -26 0 -19 -6 -26 -23 -28 -13 -2 -32
-12 -42 -22 -17 -17 -20 -17 -64 3 -25 12 -45 28 -46 35 0 6 -4 12 -9 12 -14
0 6 63 24 76 8 6 15 15 15 20 0 6 9 10 20 11 11 1 18 -2 15 -7z m822 -1241
c15 -7 57 -13 93 -15 122 -5 163 -14 187 -42 21 -25 23 -25 42 -8 15 14 27 16
53 10 18 -5 44 -7 58 -6 22 2 79 -14 135 -38 47 -20 63 -21 74 -3 10 17 12 17
26 -2 14 -17 27 -19 130 -18 69 1 113 -2 110 -8 -4 -5 6 -9 22 -9 22 0 25 -2
13 -11 -11 -8 -9 -9 10 -3 43 12 69 37 70 67 0 29 17 37 26 12 10 -25 23 -17
39 22 8 20 18 33 22 29 13 -13 14 -58 2 -72 -6 -8 -10 -15 -8 -17 81 -47 109
-35 109 47 0 53 6 69 28 73 7 2 12 -8 13 -25 0 -15 2 -36 4 -47 2 -11 5 -38 7
-60 5 -50 14 -65 39 -65 29 0 23 -27 -10 -44 -26 -14 -30 -14 -46 4 -17 19
-18 19 -37 -3 -13 -15 -21 -18 -24 -9 -7 15 -40 16 -50 1 -4 -6 -20 -9 -39 -6
-18 3 -37 2 -41 -3 -16 -15 -51 -15 -68 -1 -13 11 -22 12 -34 4 -18 -11 -85
-9 -104 3 -7 4 -87 7 -178 6 -293 -2 -314 -3 -332 -20 -14 -12 -35 -14 -103
-10 -47 3 -91 11 -99 17 -7 6 -29 10 -47 9 -25 -2 -34 1 -37 15 -2 10 0 16 5
15 4 -2 8 1 8 7 0 5 -7 11 -15 12 -8 1 -19 9 -26 17 -7 10 -20 13 -35 10 -13
-3 -31 -6 -39 -6 -8 0 -22 -7 -30 -14 -16 -14 -60 -8 -60 7 0 5 -11 9 -24 9
-14 0 -30 10 -40 25 -16 24 -16 27 10 61 35 45 76 74 106 74 12 0 30 5 38 10
18 12 14 12 47 -1z m-2770 -139 c11 0 13 -5 8 -17 -4 -10 -8 -24 -8 -30 0 -7
-4 -13 -9 -13 -5 0 -14 -11 -20 -25 -7 -15 -17 -24 -25 -21 -7 3 -13 1 -13 -3
0 -5 6 -11 13 -14 9 -3 9 -7 0 -17 -8 -9 -12 -7 -18 9 -5 17 -9 19 -25 9 -22
-14 -37 -65 -22 -80 6 -6 17 0 30 16 12 16 30 26 45 26 38 0 42 -17 7 -35 -17
-9 -29 -19 -26 -23 3 -4 -9 -9 -26 -10 -40 -3 -47 -8 -41 -31 3 -10 0 -22 -6
-25 -7 -4 -11 1 -11 13 0 12 -7 21 -15 21 -9 0 -15 9 -15 25 0 14 -4 25 -10
25 -5 0 -10 5 -10 12 0 9 3 9 11 1 24 -24 40 -3 33 43 -5 36 -3 44 11 44 24 0
43 22 37 43 -4 16 -1 18 17 12 15 -5 21 -2 21 9 0 9 8 16 17 16 9 0 14 3 10 6
-3 3 0 12 6 19 7 7 14 9 15 4 2 -5 11 -9 19 -9z m3463 -200 c9 -6 19 -5 28 2
10 9 16 8 22 -2 7 -11 20 -11 78 0 97 18 139 10 179 -36 31 -35 34 -36 62 -24
48 19 87 5 104 -39 9 -20 22 -43 31 -50 32 -27 15 -92 -39 -152 -42 -46 -77
-117 -70 -140 4 -12 -5 -21 -35 -33 -22 -9 -49 -16 -60 -16 -11 0 -20 -4 -20
-9 0 -5 -12 -8 -26 -5 -20 4 -25 1 -21 -10 4 -9 0 -15 -11 -14 -103 2 -138 -6
-179 -37 -32 -24 -39 -34 -28 -39 23 -8 18 -25 -10 -36 -28 -11 -29 -14 -16
-38 6 -11 22 -17 47 -17 32 0 39 4 44 25 3 14 16 29 28 35 12 5 22 13 22 18 0
4 4 6 9 2 5 -3 12 -1 16 5 3 5 15 10 27 10 11 0 31 9 45 20 14 11 34 20 44 20
12 0 19 7 19 19 0 17 4 18 31 11 23 -7 31 -6 36 5 3 8 8 13 12 11 3 -2 22 3
41 11 19 9 42 16 50 17 8 1 20 11 25 24 13 29 46 38 77 20 12 -8 28 -14 33
-13 21 4 45 17 45 26 0 18 41 49 65 49 17 0 40 15 69 45 25 25 49 45 54 45 6
0 19 16 31 35 11 19 31 39 45 45 13 5 52 30 87 56 43 33 75 50 106 54 53 8 65
-4 90 -96 9 -33 27 -71 41 -86 29 -32 26 -43 -10 -29 l-25 9 4 -86 c2 -48 5
-105 6 -127 3 -37 -10 -94 -24 -105 -10 -8 10 -52 20 -46 5 3 12 -1 15 -10 3
-8 10 -13 15 -10 5 3 4 -5 -2 -19 -9 -18 -17 -23 -34 -18 -17 4 -23 1 -23 -11
0 -19 53 -43 58 -27 6 18 26 12 41 -11 10 -16 14 -46 12 -93 -2 -72 -15 -96
-38 -67 -11 15 -12 15 -13 -5 0 -12 7 -29 16 -37 8 -9 10 -16 4 -16 -8 0 -8
-6 0 -20 6 -11 8 -25 5 -30 -10 -16 -35 -11 -37 8 0 9 -2 22 -2 28 -2 16 -26
44 -38 44 -6 0 -8 -13 -5 -30 5 -22 2 -32 -12 -39 -23 -13 -45 -65 -37 -86 5
-14 9 -14 31 2 14 10 28 28 31 41 6 22 24 31 24 12 0 -5 7 -7 14 -4 11 4 18
-4 24 -28 7 -28 12 -33 34 -30 20 2 28 -2 33 -18 9 -28 0 -36 -21 -19 -14 11
-19 10 -35 -11 -21 -29 -23 -36 -9 -45 6 -3 10 -11 10 -17 0 -5 -13 4 -30 22
-17 18 -37 30 -47 28 -23 -4 -31 -48 -9 -48 16 0 20 -10 16 -44 -1 -11 3 -16
9 -11 6 3 9 10 6 15 -9 15 10 19 28 5 16 -11 17 -22 11 -74 l-7 -60 -18 23
c-11 13 -19 29 -19 34 0 13 -29 24 -42 16 -5 -3 -8 -15 -5 -25 6 -21 -1 -23
-22 -10 -7 5 -14 22 -15 38 -1 30 -51 87 -67 78 -10 -7 17 -84 35 -99 7 -6 16
-20 18 -32 4 -16 1 -20 -16 -18 -12 1 -24 3 -29 3 -4 1 -6 4 -6 9 4 21 -3 30
-25 30 -24 0 -24 -1 -9 -24 8 -13 18 -24 22 -24 4 0 7 -9 8 -20 2 -23 -32 -29
-40 -7 -3 8 -23 14 -49 15 -42 1 -43 1 -22 -16 12 -9 31 -24 43 -32 23 -16 28
-31 9 -28 -9 2 -12 -8 -11 -27 0 -16 -1 -24 -4 -18 -6 17 -43 -2 -43 -22 0
-26 -16 -16 -34 21 -9 20 -18 35 -19 33 -2 -2 -8 -11 -15 -20 -10 -14 -7 -23
23 -59 42 -51 46 -85 10 -94 -27 -7 -65 8 -65 25 0 6 7 9 15 5 10 -4 15 1 15
15 0 11 -7 22 -15 25 -8 4 -15 11 -15 18 0 10 -44 36 -62 36 -4 0 -5 -7 -1
-15 3 -9 -2 -22 -13 -30 -18 -13 -17 -14 11 -25 17 -7 24 -14 18 -17 -18 -6
-16 -23 2 -23 15 0 35 -29 35 -51 0 -6 -10 -10 -23 -7 -19 4 -23 0 -22 -16 1
-13 9 -20 18 -20 21 2 70 -43 62 -57 -4 -6 -19 -3 -41 11 -20 11 -42 20 -49
20 -8 0 -22 11 -31 25 -20 30 -44 33 -44 4 0 -16 -4 -20 -17 -14 -35 13 -68
15 -83 5 -13 -8 -13 -11 -1 -19 17 -11 7 -41 -13 -41 -21 0 -30 -49 -11 -69 8
-10 12 -21 8 -24 -3 -4 -1 -7 5 -7 7 0 12 -5 12 -11 0 -5 -4 -8 -9 -4 -18 11
-23 -16 -6 -35 29 -33 -1 -30 -33 3 -21 22 -32 44 -35 72 -3 26 -9 40 -18 40
-8 0 -13 -6 -11 -14 2 -10 -5 -12 -28 -7 -28 5 -31 4 -25 -14 5 -17 2 -20 -24
-20 -41 0 -39 -15 4 -35 19 -9 40 -24 47 -32 11 -13 9 -18 -9 -30 -17 -12 -21
-22 -17 -46 5 -30 3 -29 -17 11 -21 41 -43 61 -55 49 -3 -3 -1 -15 6 -26 9
-17 8 -21 -5 -21 -19 0 -19 -14 0 -30 19 -16 18 -93 -2 -86 -7 3 -13 1 -13 -4
0 -6 -9 -10 -19 -10 -18 0 -18 -4 -9 -37 5 -21 16 -45 23 -53 27 -31 32 -77 8
-72 -22 5 -34 -18 -22 -40 5 -10 7 -18 4 -18 -13 0 -20 6 -17 15 2 5 0 7 -4 3
-9 -10 -17 -62 -16 -115 1 -35 -2 -41 -16 -36 -31 11 -43 25 -37 44 4 11 1 19
-6 19 -8 0 -8 4 1 15 10 13 9 19 -6 36 -11 12 -18 30 -16 41 3 17 1 18 -10 7
-17 -16 -21 -55 -8 -80 8 -13 7 -19 0 -19 -6 0 -14 10 -19 23 -9 23 -39 55
-74 80 -11 7 -21 31 -24 55 -5 38 -4 42 12 36 15 -6 17 -3 13 19 -7 38 16 56
42 32 15 -14 23 -15 34 -6 7 6 21 8 31 5 13 -5 16 -15 12 -40 -3 -19 -1 -36 4
-39 5 -4 9 -1 9 4 0 6 15 17 33 25 30 14 30 15 11 21 -29 9 -38 64 -15 82 15
11 14 12 -1 13 -10 0 -18 -4 -18 -10 0 -16 -57 -12 -74 6 -15 14 -16 14 -16
-5 0 -33 -14 -32 -62 7 -39 31 -91 66 -120 80 -5 2 -8 -3 -8 -11 0 -8 7 -17
15 -21 8 -3 15 -13 15 -21 0 -15 -2 -15 -22 0 -13 8 -23 21 -23 27 0 6 -6 13
-12 16 -7 2 -13 -1 -13 -6 0 -5 -14 -24 -32 -41 -17 -17 -33 -41 -35 -53 -6
-40 -12 -48 -30 -41 -10 4 -21 11 -25 17 -4 6 -10 7 -14 4 -4 -4 1 -19 10 -32
31 -49 12 -47 -44 5 -43 38 -56 78 -21 59 31 -16 37 -12 13 10 -23 22 -28 45
-12 55 6 3 10 10 10 14 0 11 -48 32 -54 23 -3 -5 -3 -40 -1 -79 4 -63 2 -70
-13 -67 -10 3 -22 -4 -30 -16 -11 -17 -10 -21 5 -27 10 -4 21 -11 25 -16 4 -6
14 -3 25 8 16 17 16 18 1 12 -22 -8 -24 6 -4 22 10 9 20 9 33 3 25 -14 78 -71
71 -77 -13 -14 -52 -13 -74 2 -24 15 -24 15 -24 -20 0 -41 -11 -51 -41 -42
-16 5 -18 9 -9 15 7 4 9 13 6 19 -4 6 -11 9 -16 6 -5 -3 -11 -1 -15 5 -7 12
-36 14 -33 3 2 -10 -42 -102 -52 -108 -13 -8 -23 14 -22 46 0 15 -6 33 -14 40
-18 15 -18 40 0 65 14 18 15 18 21 2 12 -32 34 -21 28 13 -2 18 0 35 6 39 7 3
14 31 18 60 6 51 5 53 -15 48 -12 -4 -26 0 -33 8 -8 10 -8 14 0 14 6 0 11 7
11 15 0 8 -5 15 -12 15 -6 0 -9 3 -6 6 4 3 16 0 29 -6 19 -11 25 -10 36 6 7
10 11 26 8 35 -9 28 33 35 56 10 11 -12 25 -21 32 -22 7 -1 1 -4 -13 -9 -22
-6 -23 -8 -7 -15 19 -8 61 21 51 36 -3 5 6 9 20 9 16 0 32 -9 42 -26 11 -17
20 -22 27 -15 12 12 -6 37 -34 46 -27 9 -24 30 6 43 14 6 25 16 25 22 0 5 10
10 22 10 25 0 68 -36 64 -54 -2 -6 -1 -8 1 -3 7 11 39 9 68 -5 18 -8 29 -8 37
0 7 7 14 7 22 1 6 -6 27 -18 46 -27 32 -16 35 -20 33 -59 -1 -24 2 -43 6 -43
13 0 42 36 35 43 -4 3 -4 14 0 23 6 15 8 16 24 0 21 -18 32 -21 32 -7 0 15
-62 49 -102 56 -21 4 -38 11 -38 15 0 4 -15 11 -33 14 -43 8 -63 24 -71 57 -5
21 -2 28 14 32 16 4 26 -4 18 -15 -1 -2 4 -13 11 -25 11 -22 41 -32 41 -14 0
4 17 11 38 15 27 4 44 1 62 -12 30 -22 70 -34 70 -21 0 5 -8 9 -19 9 -10 0
-26 11 -35 25 -15 22 -15 25 -1 25 9 0 18 7 22 16 3 8 12 13 19 10 17 -6 17
-6 3 47 -8 32 -7 50 2 72 7 17 11 34 10 39 -1 6 0 21 4 34 5 19 11 23 30 19
32 -6 32 1 0 13 -14 5 -25 17 -25 25 0 13 -4 14 -21 4 -13 -7 -19 -17 -16 -29
7 -27 -16 -14 -30 17 -26 54 -8 90 28 57 18 -17 20 -17 33 1 12 16 13 16 19 1
8 -20 27 -21 27 -2 0 8 5 16 12 18 7 3 12 30 13 73 2 60 -2 76 -26 115 -24 39
-33 46 -58 44 -17 -1 -38 6 -49 16 -10 10 -28 20 -38 22 -11 2 -20 13 -22 26
-4 28 -16 28 -37 0 -17 -23 -17 -23 -11 -2 4 14 1 28 -9 38 -14 14 -18 13 -36
-5 -21 -21 -46 -21 -41 0 2 12 -21 41 -32 41 -3 0 -6 -9 -6 -20 0 -10 -9 -24
-20 -30 -11 -6 -20 -18 -20 -27 0 -13 -3 -13 -15 -3 -8 7 -15 19 -15 26 0 17
-1 17 -36 -1 -28 -14 -29 -13 -44 13 -11 20 -21 26 -39 24 -13 -2 -35 2 -48 9
-19 10 -25 10 -36 -3 -16 -21 -58 -30 -74 -16 -7 6 -32 10 -55 10 -115 -1
-133 -3 -119 -11 10 -6 10 -10 1 -16 -6 -4 -21 2 -33 13 -19 17 -32 19 -97 15
-41 -2 -79 -8 -84 -13 -5 -5 -20 -3 -34 3 -20 9 -26 9 -30 -1 -2 -6 -12 -12
-23 -12 -10 0 -19 -4 -19 -9 0 -5 -9 -11 -19 -14 -14 -3 -21 -15 -23 -38 -2
-24 -7 -33 -18 -30 -8 2 -22 4 -30 6 -12 1 -14 14 -12 53 l4 51 -35 -1 c-18
-1 -39 2 -45 6 -6 4 -19 -2 -29 -14 -19 -22 -53 -27 -53 -7 0 7 6 19 13 26 10
10 6 11 -17 5 -25 -6 -28 -4 -23 9 4 11 -1 21 -14 28 -25 13 -49 5 -49 -16 0
-15 -1 -15 -16 -1 -8 9 -20 14 -25 11 -12 -8 -11 1 2 28 9 20 9 20 -4 5 -8
-10 -22 -18 -31 -18 -19 0 -21 31 -3 49 10 10 9 11 -5 6 -11 -4 -18 0 -23 14
-3 12 -11 19 -16 16 -5 -4 -9 -2 -9 4 0 6 12 8 30 4 24 -4 36 0 57 21 14 14
28 24 30 22 8 -7 -17 -46 -30 -46 -6 0 -2 -7 11 -15 19 -14 24 -14 47 1 14 9
36 14 50 12 14 -3 28 -2 30 2 3 5 15 6 27 2 17 -4 20 -2 15 11 -3 9 -1 19 5
23 7 4 8 3 4 -4 -8 -13 50 -46 64 -37 6 3 10 1 10 -6 0 -9 23 -10 93 -4 50 4
102 7 115 7 14 0 21 5 17 12 -3 6 -7 18 -11 26 -6 17 -92 62 -104 55 -4 -3
-10 4 -13 15 -4 15 0 20 13 20 24 0 33 27 12 35 -16 6 -16 7 1 16 9 6 15 14
12 20 -4 5 -1 9 4 9 6 0 11 5 11 10 0 6 -12 10 -26 10 -14 0 -32 6 -39 14 -12
11 -11 17 7 36 16 17 18 24 8 30 -7 5 -22 7 -33 5 -15 -3 -16 -1 -8 9 9 10 8
15 -3 19 -7 3 -17 2 -22 -3 -24 -24 -101 -11 -151 26 -13 9 -23 13 -23 8 0
-13 -59 -9 -72 4 -9 9 -9 15 -1 23 9 9 25 9 65 -1 29 -6 78 -14 108 -17 30 -3
57 -8 60 -12 3 -3 25 -3 50 0 25 3 36 7 25 8 -17 1 -18 3 -5 11 12 7 8 10 -15
10 l-30 1 28 24 c15 14 22 25 15 25 -8 0 -23 7 -35 15 -15 11 -55 16 -140 18
-75 2 -126 8 -139 17 -29 18 -64 92 -64 136 0 21 -4 33 -10 29 -5 -3 -10 -24
-10 -45 0 -47 -17 -88 -39 -94 -75 -21 -96 -15 -104 30 -14 76 -21 100 -28
110 -13 16 -9 114 6 150 18 43 63 61 102 40 38 -19 50 -34 66 -82 l14 -38 17
49 c29 79 39 96 68 111 42 22 147 17 132 -7 -3 -5 -1 -9 4 -9 5 0 14 -11 20
-24 10 -23 52 -43 52 -24 0 5 4 7 8 4 4 -2 9 12 10 32 3 44 18 61 77 91 41 21
55 22 126 16 47 -4 79 -3 79 2 0 5 18 21 40 36 38 25 42 25 85 13 31 -10 45
-11 48 -3 4 12 33 14 284 21 83 2 157 7 165 12 11 7 53 15 113 23 6 0 17 -3
25 -9z m-2249 -330 c11 0 22 -6 25 -14 3 -7 27 -28 54 -45 27 -17 58 -46 69
-64 11 -18 40 -50 65 -71 26 -22 46 -48 46 -58 0 -10 6 -18 14 -18 20 0 32
-40 15 -50 -7 -5 -23 -2 -36 7 -24 16 -40 13 -28 -6 3 -6 11 -9 16 -6 5 3 6
-1 3 -9 -6 -16 -24 -12 -63 13 -20 13 -25 13 -29 2 -3 -10 -6 -11 -12 -1 -5 8
-15 10 -26 5 -11 -4 -34 -7 -51 -6 -33 2 -63 -17 -63 -39 0 -6 -5 -8 -12 -4
-8 5 -9 2 -5 -10 4 -10 7 -22 7 -28 0 -7 5 -6 14 1 12 10 13 8 9 -8 -6 -24
-18 -27 -26 -7 -7 17 -46 10 -54 -10 -8 -20 -23 -17 -23 5 0 10 -9 30 -20 43
-10 14 -16 29 -12 34 12 15 -42 -29 -55 -45 -7 -8 -13 -27 -13 -43 0 -15 -4
-28 -9 -28 -5 0 -11 -10 -14 -22 -2 -13 -3 0 -3 29 2 54 24 91 76 126 13 9 18
17 11 17 -8 0 2 19 23 45 28 34 35 48 28 62 -33 64 -38 89 -28 125 12 39 77
110 84 90 2 -7 12 -12 23 -12z m-77 -492 c6 -4 17 -6 23 -3 17 6 34 -27 23
-45 -10 -16 19 -42 35 -32 15 10 35 11 35 3 0 -4 -11 -29 -24 -57 -26 -54 -20
-82 14 -64 10 6 21 10 24 10 12 0 6 -28 -9 -40 -8 -7 -17 -27 -21 -46 -10 -53
-27 -54 -19 -1 6 39 4 46 -12 49 -10 2 -22 -5 -29 -17 -6 -11 -16 -19 -22 -17
-7 1 -12 -5 -12 -13 0 -8 -6 -12 -14 -9 -9 3 -12 12 -9 22 5 11 2 14 -10 9
-26 -10 -77 4 -77 20 0 9 5 11 13 7 7 -5 7 -2 -2 10 -8 9 -10 16 -5 15 28 -5
47 24 49 77 0 6 7 19 15 29 11 14 12 19 3 22 -15 5 -17 39 -3 48 6 3 11 21 11
38 1 22 3 25 6 12 3 -11 10 -23 17 -27z"/>
<path d="M10903 7445 c4 -22 14 -46 24 -53 13 -9 14 -15 5 -24 -10 -10 -19 -6
-42 17 -42 43 -58 55 -71 55 -8 0 -8 -4 -1 -13 10 -12 16 -95 11 -137 -1 -8
-1 -28 -1 -44 2 -24 5 -27 14 -18 10 10 10 17 0 33 -8 12 -11 24 -7 27 3 4 10
1 14 -6 5 -9 14 -5 31 13 13 14 19 25 13 25 -6 0 -16 14 -22 30 -5 17 -6 30
-1 30 4 0 13 -14 19 -31 8 -24 15 -30 30 -26 15 4 19 0 16 -14 -5 -22 11 -25
31 -5 21 21 18 73 -6 93 -11 10 -20 21 -20 26 0 5 -10 21 -21 35 l-22 27 6
-40z"/>
<path d="M11030 12860 c-8 -5 -27 -10 -42 -10 -15 0 -29 -4 -32 -8 -3 -5 -25
-9 -48 -10 -65 -2 -100 -8 -107 -19 -3 -6 -18 -12 -33 -15 -21 -4 -29 -1 -34
14 -5 18 -7 19 -25 2 -10 -9 -16 -21 -12 -27 3 -5 -2 -16 -12 -23 -25 -19 -14
-27 19 -15 14 6 32 8 39 5 7 -2 22 5 34 16 23 21 53 27 53 10 0 -5 -6 -10 -13
-10 -8 0 -19 -11 -27 -24 -7 -14 -26 -30 -42 -37 -15 -6 -32 -17 -36 -23 -4
-6 -20 -18 -37 -26 -16 -8 -33 -16 -37 -18 -5 -2 -8 1 -8 7 0 6 -9 20 -20 31
-20 20 -20 20 -20 0 0 -30 -20 -67 -44 -80 -24 -12 -49 -81 -51 -140 -1 -19
-5 -43 -9 -52 -9 -21 5 -24 36 -7 15 8 19 8 14 0 -10 -16 6 -14 44 5 27 14 34
14 41 3 6 -9 7 -4 3 16 -5 24 -4 28 6 18 10 -9 18 -5 38 18 17 21 28 27 35 20
8 -8 16 -6 28 5 30 27 42 6 15 -27 -24 -29 -25 -30 -7 -48 12 -12 28 -17 48
-14 17 3 34 0 37 -6 8 -13 63 -3 91 16 11 7 30 13 44 13 13 0 47 11 75 24 28
13 62 27 76 30 l25 7 -24 -21 -23 -20 38 5 c77 9 109 18 129 35 44 38 117 70
177 79 139 22 178 31 205 48 l27 18 -42 5 c-42 5 -42 5 -21 20 69 48 88 67 76
79 -6 6 -19 11 -28 11 -34 0 -50 11 -38 26 9 11 4 17 -27 29 -22 9 -46 20 -55
25 -10 5 -32 5 -55 -1 -22 -4 -52 -9 -67 -9 -16 0 -35 -7 -44 -15 -18 -19 -39
-9 -22 11 9 11 7 14 -15 14 -35 0 -66 -17 -66 -35 0 -9 -9 -15 -22 -15 -29 0
-52 15 -44 28 3 5 -1 16 -10 23 -12 10 -22 10 -48 1 -18 -7 -40 -12 -49 -12
-19 0 -23 25 -7 35 6 4 8 11 5 16 -8 12 -36 11 -55 -1z"/>
<path d="M5685 12197 c-4 -54 -3 -92 4 -105 5 -10 16 -61 22 -112 7 -51 20
-118 30 -149 l19 -56 -6 70 c-2 39 -9 126 -13 195 -14 206 -44 291 -56 157z"/>
<path d="M13995 12058 c1 -165 -1 -207 -10 -194 -7 9 -18 16 -25 16 -9 0 -10
10 -6 34 5 26 3 35 -10 40 -23 9 -23 9 -19 -31 1 -21 4 -38 5 -38 1 0 4 -20 6
-45 3 -25 16 -60 30 -80 18 -27 21 -36 10 -38 -11 -2 -12 -11 -3 -45 13 -57
19 -61 51 -36 26 20 26 24 22 95 -3 40 -7 78 -11 84 -3 5 1 22 9 37 11 22 12
46 5 112 -4 47 -6 88 -4 92 8 12 -7 129 -15 124 -14 -8 -28 19 -25 47 2 16 0
30 -4 33 -5 2 -7 -91 -6 -207z"/>
<path d="M10562 12209 c-13 -5 -29 -22 -35 -39 -8 -20 -17 -28 -27 -25 -8 2
-21 0 -29 -4 -11 -7 -8 -11 15 -18 28 -8 29 -9 12 -25 -15 -15 -18 -15 -18 -3
0 8 -9 19 -19 25 -24 12 -34 13 -26 1 3 -5 -4 -12 -15 -16 -25 -8 -15 -29 11
-22 23 6 52 -20 42 -36 -5 -8 -8 -8 -11 1 -2 7 -10 12 -19 12 -12 0 -12 -2 1
-16 20 -19 20 -25 1 -18 -9 4 -15 0 -15 -7 0 -11 -3 -11 -10 1 -8 13 -10 13
-10 -2 0 -22 -36 -43 -44 -25 -3 6 -3 1 0 -13 2 -14 1 -46 -4 -71 -8 -43 -7
-46 10 -41 13 3 21 -2 25 -16 3 -11 18 -25 34 -31 25 -9 33 -7 47 9 25 30 32
24 32 -24 0 -31 5 -46 16 -50 17 -6 85 9 117 26 11 5 22 6 25 2 4 -4 1 -9 -6
-11 -10 -4 -10 -8 -1 -19 9 -11 8 -14 -4 -14 -9 0 -27 -9 -39 -20 -72 -62
-108 -99 -108 -113 0 -17 56 -46 92 -49 12 0 39 3 59 9 20 6 42 7 50 3 24 -14
63 -15 85 -2 18 9 25 8 43 -10 30 -27 49 -10 21 19 l-19 22 29 13 c34 14 39
28 12 28 -10 0 -27 6 -37 14 -18 13 -18 15 -2 37 37 53 48 62 86 69 48 9 54 4
70 -64 10 -42 10 -51 -5 -67 -17 -19 -12 -39 11 -39 7 0 15 -10 17 -22 2 -17
9 -23 26 -22 12 0 22 -3 22 -8 0 -4 13 -8 28 -8 25 0 28 -3 26 -29 -1 -16 -5
-34 -8 -39 -4 -6 9 -6 34 0 22 6 40 14 40 19 0 5 -4 9 -9 9 -5 0 -11 9 -14 20
-4 16 0 20 18 20 13 0 28 -7 32 -15 6 -10 27 -15 67 -16 60 -2 72 4 78 35 4
24 28 34 28 12 0 -15 12 -21 33 -17 4 1 19 2 32 3 17 2 21 6 14 14 -7 9 3 11
40 10 28 -1 48 1 45 6 -3 4 0 8 5 8 6 0 11 -8 11 -17 0 -15 8 -18 42 -16 71 3
107 14 113 34 3 10 16 21 28 25 12 4 25 11 28 16 3 5 24 5 51 -2 33 -8 61 -9
103 -1 64 12 125 6 169 -16 20 -10 31 -12 39 -4 16 16 -36 87 -70 96 -28 7
-85 45 -113 76 -8 9 -45 31 -82 48 -37 18 -72 39 -79 47 -6 8 -23 14 -38 14
-14 0 -39 9 -56 20 -16 11 -42 20 -57 20 -15 0 -34 8 -44 17 -17 17 -39 24
-84 24 -14 1 -75 8 -137 17 -100 15 -113 19 -117 38 -6 22 -20 25 -44 11 -7
-5 -14 -2 -18 7 -3 9 -10 14 -14 11 -4 -3 -13 2 -20 10 -7 8 -17 15 -23 15 -6
0 -1 -7 12 -16 17 -12 20 -19 11 -28 -8 -8 -14 -7 -21 6 -8 14 -18 16 -44 12
-20 -3 -35 -1 -35 4 0 12 29 24 41 16 5 -3 9 0 9 5 0 6 -4 11 -10 11 -25 0 -7
18 23 23 198 31 236 47 110 47 -90 0 -210 -25 -288 -61 -55 -25 -174 -30 -199
-10 -11 9 -15 9 -18 0 -2 -6 -15 -12 -30 -12 -14 -1 -24 -5 -22 -9 2 -4 -1
-10 -6 -13 -8 -5 -5 -14 7 -28 18 -20 17 -20 -4 -15 -13 4 -23 3 -23 -1 0 -4
-9 -7 -20 -7 -11 0 -20 6 -20 13 0 7 -7 13 -15 13 -8 0 -15 7 -15 15 0 8 -7
15 -15 15 -8 0 -15 5 -15 11 0 5 -4 8 -9 5 -5 -3 -11 6 -14 21 -5 26 -5 26 12
7 21 -26 61 -45 86 -42 11 2 20 6 21 8 0 3 6 15 13 28 11 20 10 27 -5 43 -9
10 -23 19 -29 19 -7 0 -15 9 -18 20 -3 12 0 20 8 20 14 0 27 25 18 34 -9 9
-54 6 -81 -5z"/>
<path d="M5620 11688 c0 -26 -2 -29 -15 -18 -14 12 -15 6 -9 -56 3 -42 13 -79
25 -96 13 -19 15 -27 6 -31 -14 -5 -14 -28 -2 -96 6 -35 9 -41 17 -27 5 9 6
25 3 36 -4 11 -2 20 4 20 5 0 13 -16 17 -36 8 -41 23 -28 25 21 0 26 2 27 9
10 7 -15 9 -8 11 30 4 112 0 188 -10 198 -6 6 -11 21 -11 33 0 20 -11 28 -57
39 -8 2 -13 -8 -13 -27z"/>
<path d="M10644 11375 c11 -8 23 -15 28 -15 4 0 5 -7 1 -16 -6 -17 12 -34 39
-34 9 0 41 -14 70 -31 71 -42 165 -79 202 -79 17 0 49 -7 71 -14 34 -12 252
-32 305 -28 8 0 59 3 112 6 189 10 235 32 70 35 -309 4 -378 9 -427 31 -25 11
-114 31 -137 31 -10 0 -27 13 -38 29 -19 27 -78 47 -121 41 -9 -1 -19 5 -22
14 -4 8 -13 15 -21 15 -10 0 -13 6 -10 15 5 13 -6 15 -67 15 -67 -1 -72 -2
-55 -15z"/>
<path d="M5511 10656 c-9 -10 -10 -59 -5 -178 5 -142 4 -178 -15 -280 -24
-131 -28 -268 -11 -313 6 -16 11 -31 11 -32 -3 -12 2 -23 19 -43 11 -13 20
-29 20 -37 0 -17 67 -153 86 -174 8 -8 14 -19 14 -23 0 -4 5 -12 10 -19 6 -7
20 -25 32 -41 20 -26 22 -27 34 -11 9 12 10 23 3 36 -7 14 -5 21 10 28 16 9
19 23 20 108 1 54 5 123 11 153 8 47 16 113 35 280 2 19 4 84 5 144 1 60 6
103 10 96 10 -15 16 -4 25 42 5 28 3 38 -10 46 -12 6 -19 26 -23 61 -4 42 -7
49 -18 40 -11 -9 -14 -6 -14 14 0 32 -16 43 -37 25 -14 -11 -15 -10 -9 9 5 16
1 25 -16 37 -20 14 -23 14 -40 -1 -10 -9 -18 -24 -18 -35 0 -10 -4 -18 -10
-18 -5 0 -10 16 -10 36 0 31 -3 35 -20 29 -14 -4 -20 -2 -20 9 0 23 -25 9 -38
-22 l-11 -27 5 32 c6 35 -8 50 -25 29z"/>
<path d="M5893 10362 c2 -18 0 -35 -4 -37 -9 -6 -26 15 -32 40 -4 18 -5 18 -6
-3 -1 -13 -11 -27 -25 -33 -14 -7 -23 -18 -21 -28 2 -9 4 -22 4 -29 1 -7 5
-11 10 -8 5 3 9 -5 9 -18 0 -13 6 -38 15 -55 8 -17 12 -31 7 -31 -4 0 -6 -9
-3 -20 3 -11 1 -26 -5 -33 -6 -7 -10 -36 -10 -64 1 -29 -3 -58 -9 -65 -35 -42
-37 -348 -4 -503 6 -27 12 -57 14 -65 1 -8 8 -25 15 -38 7 -12 10 -27 7 -32
-3 -6 -2 -10 4 -10 5 0 22 -18 38 -40 15 -22 34 -40 40 -40 7 0 12 -3 11 -7
-4 -16 23 -53 34 -47 7 5 5 11 -6 20 -20 14 -14 34 10 34 8 0 14 9 14 19 0 11
8 22 18 25 10 4 33 26 50 51 31 45 46 54 57 36 3 -5 17 2 31 16 24 24 24 26 8
44 -9 11 -14 22 -11 26 4 3 -3 13 -14 21 -21 15 -21 15 10 28 35 15 41 46 16
74 -14 15 -14 21 -1 52 9 20 13 38 10 41 -3 3 -5 63 -5 133 1 106 -1 130 -15
145 -13 15 -20 16 -31 8 -10 -9 -13 -6 -13 14 0 14 7 27 15 31 21 8 19 29 -4
50 -11 10 -25 41 -32 69 -6 29 -14 55 -16 59 -2 5 -21 -3 -41 -17 -20 -14 -42
-25 -49 -25 -16 0 -17 36 -2 45 6 4 7 20 3 38 -6 28 -5 30 10 18 9 -8 16 -9
16 -3 0 13 -28 42 -41 42 -5 0 -9 10 -9 23 l-1 22 -12 -23 c-14 -25 -27 -20
-27 12 -1 12 -8 32 -16 46 l-15 25 4 -33z"/>
<path d="M12277 7433 c-4 -3 -7 -26 -7 -50 0 -23 -4 -43 -10 -43 -15 0 -12
-46 5 -87 18 -42 15 -49 -15 -33 -12 6 -24 10 -26 7 -7 -7 13 -88 24 -99 17
-17 33 0 20 21 -14 23 -4 51 18 51 12 0 15 -7 12 -24 -3 -16 0 -27 10 -31 12
-4 13 -8 4 -17 -9 -9 -7 -17 10 -35 15 -17 19 -26 11 -34 -8 -8 -17 -4 -32 12
-22 24 -28 11 -11 -22 7 -13 7 -19 0 -19 -14 0 -13 -27 1 -36 7 -4 19 3 29 16
14 19 20 20 37 10 22 -14 78 -6 68 10 -3 6 1 10 11 10 13 0 14 3 4 14 -11 15
-39 11 -51 -7 -12 -17 -30 4 -26 31 2 15 0 43 -5 62 -21 83 -21 90 2 90 12 0
18 4 15 11 -4 6 -13 8 -20 5 -9 -3 -14 10 -18 42 -4 38 0 55 20 89 l25 43 -30
0 c-17 0 -34 5 -37 10 -7 11 -28 13 -38 3z"/>
<path d="M12901 5240 c-30 -44 -58 -80 -61 -80 -4 0 -15 18 -25 40 -10 22 -20
38 -23 35 -3 -2 -8 -111 -13 -242 -7 -218 -10 -245 -34 -323 -15 -47 -29 -95
-32 -108 -3 -12 -9 -25 -14 -28 -5 -3 -9 -11 -9 -19 0 -7 -25 -47 -55 -87 -30
-40 -55 -78 -55 -84 0 -6 -11 -21 -25 -34 -14 -13 -25 -29 -25 -35 0 -21 -199
-185 -224 -185 -6 0 -31 -21 -55 -45 -25 -25 -50 -45 -57 -45 -7 0 -26 -13
-43 -29 -16 -15 -33 -26 -36 -23 -3 3 -5 -1 -5 -8 0 -7 -3 -11 -6 -7 -3 3 -16
-5 -29 -19 -12 -13 -29 -24 -37 -24 -14 0 -70 -45 -127 -102 -13 -12 -27 -22
-32 -20 -5 1 -9 -5 -9 -13 0 -18 18 -12 80 29 25 17 72 47 104 66 32 19 84 52
116 73 68 44 95 48 86 13 -5 -20 -3 -23 21 -20 14 1 29 8 34 15 6 10 13 10 33
1 14 -6 33 -9 41 -6 21 8 29 48 16 73 -9 17 -8 22 9 31 11 6 20 16 20 23 0 23
118 129 215 194 81 53 93 62 173 125 33 25 69 51 80 57 28 15 92 107 92 134 1
12 9 40 20 62 10 22 14 42 9 43 -5 2 -9 10 -9 19 0 15 -29 84 -39 93 -4 3 -7
11 -9 18 -3 14 61 -30 91 -62 17 -19 18 -19 32 0 8 10 17 34 21 51 5 28 0 39
-36 83 -23 28 -51 56 -61 64 -11 7 -40 39 -65 71 -52 68 -52 80 2 213 19 45
34 87 34 92 0 28 -31 1 -79 -70z"/>
<path d="M5778 4700 c-9 -6 -29 -30 -45 -55 -15 -25 -35 -45 -44 -45 -8 0 -51
-9 -95 -21 -52 -14 -105 -21 -155 -20 -58 2 -79 -2 -89 -14 -7 -9 -21 -13 -31
-10 -23 8 -26 -10 -3 -19 42 -16 187 0 238 26 10 5 39 10 65 10 25 0 51 4 58
10 7 5 20 7 31 4 17 -6 15 -18 -33 -208 l-50 -202 -110 -27 c-119 -29 -379
-56 -439 -45 -41 8 -42 10 -21 80 31 106 53 215 48 234 -5 22 50 92 73 92 15
0 18 18 6 36 -5 8 -23 6 -62 -7 -30 -11 -68 -21 -85 -23 -48 -6 -85 -18 -85
-27 0 -5 18 -12 40 -15 22 -4 40 -12 40 -19 0 -7 -12 -39 -26 -71 -31 -68 -74
-199 -74 -223 0 -31 -29 -59 -81 -75 -61 -20 -156 -29 -164 -15 -8 12 -35 12
-35 -1 0 -5 9 -10 20 -10 10 0 30 -12 44 -26 21 -23 30 -26 63 -21 21 4 39 11
41 17 3 7 8 7 18 -1 10 -8 18 -8 27 -1 18 15 37 1 38 -29 3 -38 -24 -345 -37
-433 l-6 -38 -67 6 c-102 9 -151 17 -151 26 0 11 -49 19 -56 9 -6 -10 53 -42
68 -37 5 2 22 -7 37 -21 15 -14 56 -34 92 -46 l64 -22 -3 -39 c-1 -21 -4 -104
-6 -184 -2 -79 -8 -146 -13 -147 -33 -12 -36 -21 -18 -49 16 -24 17 -40 10
-133 -4 -58 -8 -133 -10 -167 -3 -79 -13 -121 -29 -127 -19 -8 -7 -65 17 -82
15 -10 17 -15 7 -15 -13 0 -13 -1 0 -10 12 -8 12 -11 -2 -27 -14 -15 -16 -52
-18 -243 0 -124 -4 -242 -7 -263 -3 -24 0 -52 10 -75 19 -46 36 -166 36 -254
0 -36 4 -104 9 -150 6 -46 10 -92 10 -103 0 -11 2 -25 3 -30 2 -6 -5 -31 -15
-58 l-19 -47 27 -38 c20 -30 26 -50 26 -94 0 -62 7 -91 21 -82 5 3 9 0 9 -5 0
-6 -4 -11 -10 -11 -14 0 -12 -27 3 -33 9 -3 9 -9 0 -25 -10 -16 -10 -21 0 -25
8 -2 9 -8 2 -18 -10 -13 -12 -126 -3 -160 7 -28 38 -53 50 -41 8 8 8 15 -2 26
-15 19 -5 50 14 43 10 -4 14 0 13 12 0 10 -7 18 -14 19 -7 1 -20 3 -28 4 -23
2 -26 26 -4 33 10 4 16 11 13 16 -10 17 -11 83 -2 102 5 9 15 17 23 17 20 0
19 17 -2 29 -15 8 -16 12 -5 22 16 18 15 37 -4 57 -15 14 -15 17 0 28 12 8 17
26 16 55 0 24 3 61 6 82 4 26 1 45 -10 62 -9 13 -16 36 -16 50 0 18 -5 25 -19
25 -10 0 -21 9 -24 20 -3 11 -2 18 3 15 4 -3 11 2 14 11 3 8 10 13 14 10 12
-7 -6 105 -19 120 -7 8 -6 15 2 19 13 8 5 111 -10 129 -9 12 -6 181 5 233 4
21 0 43 -11 65 -26 50 -35 87 -24 94 11 7 2 62 -13 81 -6 7 -6 19 1 31 8 15 7
21 -3 25 -15 6 -27 67 -13 67 5 0 7 7 3 15 -3 8 -1 15 4 15 15 0 23 46 11 68
-8 15 -8 23 -1 27 6 4 10 14 9 23 -3 34 1 53 11 47 5 -3 20 1 31 9 14 9 27 12
38 6 9 -5 39 -14 66 -20 28 -6 100 -35 161 -64 133 -64 191 -84 262 -90 30 -3
55 -6 57 -8 1 -2 5 -64 8 -138 6 -140 13 -184 28 -174 5 3 9 -1 9 -8 0 -10 2
-11 8 0 5 7 16 10 25 6 9 -3 14 -10 11 -15 -3 -5 2 -9 11 -9 14 0 16 17 14
132 -1 73 -4 156 -8 183 -9 68 -5 81 30 96 24 9 51 10 125 0 84 -10 337 -2
406 13 10 2 20 0 23 -4 9 -14 15 -362 7 -419 l-7 -55 -95 -13 c-92 -13 -280
-68 -280 -82 0 -4 -16 -5 -36 -3 -28 3 -35 1 -32 -9 3 -8 15 -13 30 -11 16 2
28 -3 31 -12 7 -17 38 -16 82 3 17 8 87 18 157 24 143 12 158 8 158 -47 0 -18
6 -81 14 -142 36 -282 40 -335 28 -366 -6 -16 -9 -35 -6 -41 7 -17 79 -67 97
-67 19 0 73 63 58 68 -6 2 -11 9 -11 15 0 6 -7 18 -16 28 -8 9 -18 32 -22 51
-7 40 -9 504 -2 511 6 6 356 22 483 22 104 0 114 6 82 49 -29 38 -10 62 24 32
19 -17 81 -10 81 9 0 7 -6 15 -12 18 -10 3 -10 7 1 20 7 10 17 17 21 17 12 0
171 -236 205 -303 30 -60 55 -84 55 -53 0 26 27 30 51 7 13 -12 29 -21 37 -21
8 0 26 -6 40 -14 15 -8 52 -24 82 -35 35 -14 77 -42 114 -76 32 -30 62 -55 65
-55 21 0 17 17 -15 62 -19 28 -34 53 -34 57 0 11 100 -9 132 -25 31 -16 48
-17 82 -5 37 15 24 48 -24 61 -21 6 -54 25 -74 44 -32 29 -35 34 -18 38 10 3
54 -5 98 -18 43 -13 103 -28 133 -34 44 -10 62 -21 103 -63 41 -43 57 -72 94
-167 24 -63 44 -120 44 -127 0 -7 -22 -22 -50 -34 -27 -12 -47 -25 -44 -30 3
-5 -5 -9 -18 -9 -13 0 -29 -5 -35 -11 -8 -8 -20 -8 -46 2 -35 12 -67 8 -67
-10 0 -6 19 -22 43 -35 35 -21 49 -24 73 -17 51 15 64 23 64 36 0 11 76 19
153 17 60 -2 149 -90 203 -200 15 -29 30 -55 35 -58 5 -3 9 -12 9 -20 0 -20
37 -101 50 -109 5 -3 10 -15 10 -26 0 -10 6 -19 14 -19 7 0 19 -7 27 -16 10
-13 10 -17 -2 -26 -11 -8 -10 -9 4 -4 11 3 20 0 24 -9 4 -13 35 -13 50 -1 6 5
-68 188 -104 262 -67 134 -90 168 -133 194 -66 40 -84 56 -76 68 4 7 14 12 22
12 7 0 60 15 116 34 99 33 125 42 195 72 17 8 38 14 46 14 9 0 19 5 22 10 16
26 59 8 118 -48 34 -32 83 -73 108 -91 25 -18 56 -51 69 -73 23 -41 44 -69 85
-114 32 -35 65 -101 65 -131 1 -31 30 -70 73 -97 16 -10 36 -30 45 -46 9 -16
26 -30 38 -33 19 -3 22 0 18 26 -2 16 -15 40 -30 53 -19 19 -23 28 -15 38 14
17 -45 96 -72 96 -24 0 -44 21 -53 54 -4 18 -11 25 -20 22 -11 -4 -13 1 -8 18
3 14 -1 27 -10 35 -9 8 -16 20 -16 28 0 7 -7 16 -16 20 -8 3 -25 26 -37 52
-16 33 -33 51 -60 65 -21 10 -48 32 -60 48 -12 17 -32 34 -45 39 -12 5 -26 19
-31 32 -5 14 -17 27 -26 31 -9 3 -15 14 -13 25 3 22 -48 81 -70 81 -8 0 -36
19 -63 43 -26 23 -65 57 -86 76 -54 48 -162 106 -174 94 -7 -7 0 -14 19 -22
38 -16 227 -206 227 -229 0 -12 -7 -16 -23 -14 -13 1 -36 -4 -50 -12 -15 -7
-54 -24 -87 -36 -33 -13 -73 -28 -90 -35 -16 -8 -55 -21 -85 -30 -30 -10 -61
-22 -67 -27 -30 -24 -58 18 -98 142 -23 71 -58 141 -82 162 -30 27 -103 55
-163 63 -76 10 -92 20 -44 30 62 13 72 14 207 21 94 5 133 11 144 22 13 14 12
17 -11 29 -14 8 -53 15 -87 17 -50 4 -64 1 -80 -15 -10 -10 -27 -19 -36 -19
-10 0 -76 -7 -148 -15 -126 -13 -131 -13 -174 7 -24 12 -76 54 -116 93 -94 94
-130 178 -140 329 -4 53 9 101 25 91 5 -3 64 -7 131 -9 90 -2 122 0 126 9 2 7
29 16 59 20 34 4 57 12 61 21 9 23 -5 29 -39 16 -35 -13 -48 -8 -30 10 20 20
14 27 -49 59 -75 37 -109 70 -109 103 0 26 -40 56 -75 56 -8 0 -23 8 -34 19
-10 10 -55 32 -100 50 -73 27 -84 29 -97 16 -9 -8 -12 -15 -7 -15 15 0 73
-105 73 -131 0 -30 -31 -66 -65 -75 -108 -27 -308 114 -341 240 -19 72 -18 90
12 125 38 45 144 70 168 40 18 -22 77 -61 83 -55 10 9 -19 56 -34 56 -7 0 -13
4 -13 8 0 5 -9 18 -21 30 -11 12 -17 27 -14 33 4 5 -6 21 -21 34 -20 17 -35
22 -58 18 -18 -2 -38 1 -47 9 -19 15 -49 89 -49 121 0 12 -8 48 -18 80 -12 41
-24 61 -42 70 -15 8 -24 21 -23 33 1 10 -5 34 -13 52 -14 29 -19 32 -62 32
-27 0 -54 -6 -60 -12 -10 -10 -17 -10 -32 0 -10 6 -25 10 -32 8 -7 -1 -9 -1
-5 2 4 2 2 9 -6 16 -8 6 -22 31 -31 55 -15 39 -15 45 -1 61 18 20 19 31 2 54
-13 17 -15 17 -52 -3 -61 -32 -86 -27 -42 9 22 19 22 19 2 33 -11 9 -23 13
-27 11 -4 -2 -9 0 -13 6 -3 5 -1 10 5 10 7 0 10 14 8 37 -3 32 -7 38 -40 49
-34 12 -38 11 -38 -4 0 -10 7 -28 16 -40 8 -12 17 -32 19 -43 2 -12 14 -41 25
-65 12 -25 20 -57 18 -76 -2 -27 2 -36 24 -50 14 -9 32 -33 39 -53 12 -33 16
-36 44 -31 27 4 28 4 8 -6 l-22 -11 22 -27 c22 -25 23 -32 14 -96 -11 -84 -9
-202 4 -226 5 -9 9 -32 9 -51 0 -19 7 -47 15 -64 19 -38 34 -118 28 -144 -4
-15 -14 -19 -44 -19 -36 0 -39 -2 -39 -28 0 -39 23 -70 41 -55 11 8 22 8 46
-2 49 -21 102 -141 160 -360 9 -33 24 -82 34 -109 33 -86 31 -91 -56 -91 -60
0 -75 3 -75 15 0 9 -12 33 -26 54 -19 28 -29 35 -34 25 -5 -7 -5 -20 0 -28 4
-9 9 -19 9 -23 3 -16 13 -44 21 -59 20 -37 -8 -47 -168 -58 -224 -16 -308 -15
-316 5 -7 19 -8 427 -1 446 4 10 33 12 128 10 138 -3 172 -13 182 -49 7 -30
18 -23 23 14 2 17 -5 35 -21 52 -13 14 -34 43 -46 64 -23 38 -41 48 -41 22 0
-12 -19 -15 -111 -15 l-110 0 5 260 c3 143 8 265 11 270 3 5 -1 33 -9 62 -9
29 -23 82 -31 117 -9 36 -27 91 -42 123 -20 45 -23 61 -14 72 16 19 17 116 2
145 -18 33 -31 14 -31 -45 0 -27 0 -56 0 -64 0 -8 -4 -44 -10 -80 -6 -36 -10
-110 -8 -165 l3 -100 -50 -7 c-27 -4 -108 -14 -180 -23 -71 -9 -169 -21 -217
-26 -48 -6 -100 -8 -114 -5 -27 7 -27 7 -20 79 3 40 9 117 12 172 4 55 11 131
18 169 16 100 32 109 183 111 80 1 132 7 163 18 25 9 64 21 88 27 23 6 42 14
42 18 -1 4 -11 20 -24 36 l-24 28 -53 -17 c-30 -9 -108 -21 -174 -26 -66 -5
-133 -10 -150 -11 l-30 -3 3 95 c3 94 33 295 52 344 9 24 14 25 92 28 l83 3 3
36 3 36 -75 -5 -76 -5 0 39 c0 22 4 55 9 74 5 19 11 102 14 184 4 130 7 151
23 163 26 19 62 16 76 -7 20 -31 48 -26 48 9 0 35 -31 61 -71 61 -15 0 -32 7
-39 15 -14 17 -19 18 -42 5z m-176 -638 c-8 -42 -25 -177 -37 -305 -8 -81 -16
-151 -19 -156 -3 -5 -22 -11 -43 -15 -21 -3 -56 -9 -78 -14 -22 -4 -65 -4 -95
1 -66 10 -120 3 -220 -29 -41 -13 -88 -24 -103 -24 l-28 0 2 108 c3 115 25
335 37 366 7 16 22 19 142 22 129 3 194 13 305 47 60 19 141 18 137 -1z m-67
-564 c4 -4 -2 -83 -14 -176 -11 -93 -21 -188 -21 -211 0 -25 -5 -43 -12 -45
-116 -35 -245 -66 -288 -71 -30 -3 -77 -12 -105 -20 -27 -8 -68 -16 -91 -18
-37 -4 -42 -2 -64 30 l-23 34 17 142 c9 78 22 170 27 204 11 63 11 63 53 73
22 6 73 22 111 35 39 13 79 26 90 28 31 8 312 3 320 -5z m-57 -795 c3 -309 12
-281 -98 -290 -68 -6 -69 -6 -240 57 -47 18 -101 33 -120 34 -19 2 -47 8 -61
14 -35 14 -76 56 -71 72 3 7 -2 16 -9 21 -11 7 -11 9 3 9 25 0 34 21 14 32
-16 9 -16 12 -1 34 15 24 12 50 -5 39 -4 -3 -6 4 -3 15 3 11 9 20 14 20 5 0 8
17 7 38 -3 48 21 142 36 142 6 0 29 -12 49 -26 32 -21 46 -25 85 -21 64 7 220
42 347 77 17 4 35 7 40 6 6 -2 11 -103 13 -273z m726 187 c-2 -182 -17 -361
-31 -375 -7 -8 -35 -16 -61 -20 -26 -3 -74 -11 -107 -17 -72 -14 -141 -15
-297 -4 l-117 9 -6 28 c-6 27 11 298 24 386 l6 43 128 4 c70 3 132 8 139 12
17 11 126 20 233 19 l90 0 -1 -85z m1210 -682 c3 -13 6 -34 6 -48 0 -27 44
-154 79 -232 12 -27 53 -80 91 -118 39 -39 70 -72 70 -73 0 -1 -34 -2 -76 -2
-61 0 -77 3 -85 18 -10 18 -70 53 -68 40 3 -20 -2 -23 -15 -10 -23 23 -76 110
-76 125 0 7 -11 37 -24 65 -32 69 -40 90 -37 105 1 6 -3 12 -9 12 -5 0 -10 6
-10 14 0 10 8 13 26 10 24 -4 26 -2 22 21 -3 14 -1 25 3 25 5 0 9 9 9 20 0 11
5 20 10 20 6 0 10 7 10 15 0 10 10 15 34 15 26 0 35 -5 40 -22z"/>
<path d="M13834 4319 c9 -21 22 -35 35 -37 12 -2 19 -8 15 -13 -3 -5 4 -26 15
-45 12 -19 21 -41 21 -49 0 -7 6 -26 14 -42 8 -15 22 -48 32 -73 20 -50 45
-80 69 -80 16 0 20 15 6 24 -5 3 -7 15 -4 26 3 12 0 20 -7 20 -9 0 -10 14 -5
49 5 37 2 57 -11 82 -10 19 -19 36 -19 39 -6 22 -19 39 -26 34 -5 -3 -9 -1 -9
4 0 6 -10 8 -22 4 -14 -3 -19 -1 -14 6 3 6 15 9 26 7 17 -3 18 0 13 28 -3 18
-8 34 -10 37 -2 2 -33 6 -68 8 l-65 4 14 -33z"/>
<path d="M11647 3616 c-5 -11 -13 -16 -23 -12 -9 3 -25 -2 -38 -13 -61 -56
-95 -81 -108 -81 -9 0 -27 -9 -41 -20 -14 -11 -29 -20 -34 -20 -5 0 -33 -11
-61 -25 -29 -14 -56 -25 -61 -25 -5 0 -11 -3 -13 -8 -4 -10 -103 -73 -153 -97
-64 -32 -215 -152 -215 -172 0 -7 -33 -38 -72 -70 -40 -32 -75 -61 -78 -65 -3
-4 -21 -15 -40 -23 -68 -32 -79 -40 -90 -60 -11 -20 -63 -55 -82 -55 -6 0 -25
-16 -44 -35 -18 -19 -35 -35 -38 -35 -10 0 -121 -114 -121 -125 0 -5 -8 -9
-18 -7 -9 2 -17 -3 -17 -11 0 -7 -22 -37 -50 -66 -27 -29 -50 -49 -50 -45 0 4
-9 -1 -20 -11 -11 -10 -20 -15 -20 -10 0 4 -7 2 -15 -5 -10 -8 -12 -16 -6 -20
6 -3 -7 -20 -29 -39 -22 -18 -40 -39 -40 -47 0 -13 -60 -92 -110 -146 -11 -12
-18 -30 -15 -42 2 -12 6 -39 9 -62 5 -33 17 -52 66 -101 33 -33 62 -58 65 -55
5 5 9 -14 6 -30 0 -5 3 -8 9 -8 10 0 7 -13 -22 -77 -10 -24 -23 -43 -28 -43
-5 0 -25 -13 -43 -30 -19 -16 -39 -30 -44 -30 -6 0 -18 -9 -28 -20 -12 -14
-25 -17 -46 -13 -24 5 -36 -1 -69 -33 -23 -22 -45 -38 -50 -36 -6 1 -10 -8
-10 -20 0 -21 -56 -148 -69 -158 -4 -3 -13 -24 -21 -47 -7 -24 -17 -43 -21
-43 -4 0 -5 -9 -2 -20 5 -19 -3 -48 -34 -118 -8 -18 -11 -37 -8 -42 3 -5 -1
-24 -9 -42 -13 -31 -24 -91 -31 -183 -2 -22 -7 -65 -11 -95 -4 -30 -8 -85 -8
-122 -1 -36 -4 -70 -8 -74 -5 -4 -8 -22 -8 -40 0 -24 -6 -37 -21 -45 l-21 -11
25 -26 c22 -24 47 -102 32 -102 -14 0 -64 67 -65 86 0 28 -23 46 -51 42 -21
-3 -21 -4 -7 -18 8 -9 19 -27 23 -40 4 -14 15 -34 25 -45 10 -11 22 -32 25
-47 4 -15 13 -29 22 -32 8 -3 12 -10 9 -15 -6 -9 20 -67 34 -76 5 -3 12 -31
16 -63 7 -62 28 -111 47 -113 6 -1 21 -1 32 0 16 2 20 -4 19 -26 0 -15 -6 -29
-12 -31 -7 -2 -8 -12 0 -33 6 -17 15 -26 21 -22 7 3 9 3 5 -1 -3 -4 -2 -21 4
-37 8 -23 16 -29 39 -29 25 0 29 4 29 28 0 42 13 54 50 48 52 -8 70 7 70 59 0
48 -7 56 -60 65 l-35 6 3 98 c2 54 8 110 13 124 5 14 12 46 15 71 3 25 9 71
15 101 14 76 19 108 23 158 4 56 14 65 55 51 36 -13 44 -8 58 36 15 44 0 72
-44 85 l-39 12 4 66 c2 37 11 94 19 127 8 33 19 80 24 105 6 25 17 59 24 75 7
17 22 62 33 100 37 132 42 138 86 110 30 -20 51 -11 70 30 23 48 20 61 -19 85
-19 12 -35 25 -35 30 0 16 40 97 59 118 11 13 22 19 25 13 9 -14 63 6 71 27 3
10 0 21 -9 28 -14 10 -13 15 4 52 11 23 20 45 20 50 0 5 9 17 20 27 18 16 25
14 21 -7 -2 -11 1 -11 63 17 55 24 67 40 45 62 -8 8 -20 8 -35 3 -13 -5 -24
-6 -23 -2 0 11 110 64 118 57 7 -8 -28 -35 -46 -35 -7 0 -13 -4 -13 -9 0 -18
31 -20 65 -4 33 16 37 16 80 -6 25 -12 57 -21 72 -19 25 3 28 7 28 41 0 36
-23 66 -38 51 -3 -3 -13 -1 -23 4 -14 8 -12 11 18 21 44 15 208 12 209 -3 0
-6 9 8 19 32 11 23 23 42 28 42 11 0 0 64 -17 101 -7 14 -31 37 -53 52 l-40
25 26 17 c20 14 24 23 22 53 -4 36 -5 37 -41 33 -36 -3 -115 24 -115 39 0 4
-9 10 -20 13 -25 6 -26 25 -2 34 34 13 72 61 72 90 0 36 18 61 47 65 12 2 103
83 205 183 190 187 327 310 335 302 2 -3 -1 -15 -7 -27 -6 -11 -17 -38 -25
-60 -11 -31 -11 -39 -1 -43 16 -7 37 6 40 24 4 29 40 98 48 93 4 -3 9 1 10 8
0 7 2 18 2 24 1 6 9 19 19 28 9 10 17 23 17 30 0 8 42 54 93 104 50 50 102
103 114 119 19 23 24 25 32 13 6 -8 13 -11 17 -7 4 4 2 13 -4 19 -9 9 -8 16 4
29 9 10 14 24 12 30 -3 9 -7 7 -11 -5z"/>
<path d="M11690 3520 c0 -12 -7 -20 -16 -20 -14 0 -14 -1 0 -16 18 -18 20 -30
7 -39 -5 -3 -15 -30 -21 -59 -9 -45 -20 -63 -64 -107 -29 -30 -64 -62 -77 -71
-23 -16 -23 -17 -3 -18 13 0 26 -10 33 -27 11 -24 10 -28 -14 -47 -30 -25 -44
-98 -45 -233 0 -97 -12 -116 -87 -136 -28 -7 -48 -19 -51 -29 -3 -13 -15 -18
-41 -20 -36 -1 -36 -1 -4 -5 19 -3 34 -11 37 -21 3 -9 19 -23 35 -30 62 -27
97 -160 66 -251 -13 -40 -15 -69 -10 -134 6 -71 4 -88 -15 -129 -11 -26 -25
-50 -30 -53 -6 -3 -10 -17 -10 -30 0 -29 -29 -105 -40 -105 -4 0 -14 -18 -23
-40 l-15 -40 24 4 c13 3 36 14 50 25 23 18 54 19 54 1 0 -13 81 -100 93 -100
20 -1 70 -47 63 -58 -3 -5 1 -12 9 -16 8 -3 15 -13 15 -21 0 -9 13 -39 29 -68
16 -29 37 -78 47 -110 10 -32 29 -70 41 -84 14 -14 21 -32 18 -41 -2 -10 -5
-21 -6 -27 0 -5 -5 -16 -11 -22 -6 -7 -8 -14 -4 -14 21 -5 79 -10 130 -12 54
-2 61 -5 78 -32 10 -17 15 -38 12 -47 -4 -13 0 -15 16 -11 16 4 19 2 14 -13
-5 -15 -4 -16 4 -5 8 11 14 12 24 3 11 -9 17 -9 26 0 14 14 -51 99 -101 134
-36 25 -67 59 -67 74 0 6 9 10 20 10 13 0 20 7 20 20 0 11 5 20 10 20 20 0 9
27 -25 60 -27 26 -37 31 -48 22 -8 -7 -17 -9 -21 -5 -4 4 -11 1 -15 -6 -5 -7
-13 -11 -19 -7 -13 8 -132 182 -132 193 0 5 -10 13 -22 18 -16 7 -22 17 -21
35 1 14 4 93 5 175 3 146 4 150 25 153 17 3 24 13 31 45 10 49 8 55 -25 68
-24 9 -25 12 -19 62 4 29 6 118 5 197 -2 203 1 268 12 297 8 21 13 24 38 18
28 -6 31 -4 42 34 11 38 10 43 -9 64 -12 13 -22 30 -22 39 0 30 38 124 69 169
17 26 31 52 31 59 0 6 18 48 41 92 22 45 38 87 35 94 -8 22 4 44 25 44 27 0
31 18 15 65 -11 31 -21 41 -43 46 -15 4 -45 14 -65 23 -21 9 -53 16 -73 16
-28 0 -35 -4 -35 -20z"/>
<path d="M3352 3132 c4 -13 0 -26 -9 -34 -36 -29 -32 -88 5 -88 16 -1 16 -2 0
-14 -17 -13 -26 -42 -10 -33 4 3 8 -6 8 -19 1 -13 -2 -22 -6 -19 -11 7 -17
-14 -12 -42 5 -25 22 -32 22 -9 0 7 10 21 23 30 22 15 22 16 3 31 -11 8 -14
15 -8 15 7 0 12 13 12 30 0 27 3 30 30 30 24 0 33 6 41 26 11 32 4 60 -18 68
-12 5 -13 9 -3 21 10 13 9 15 -11 14 -13 0 -35 3 -48 7 -21 6 -23 5 -19 -14z"/>
<path d="M11227 3075 c-20 -28 -26 -117 -8 -123 6 -2 11 -12 11 -23 0 -20 16
-24 46 -12 16 6 16 7 -2 14 -15 6 -12 8 13 8 46 1 64 24 61 79 -3 46 -3 46
-53 64 -27 10 -50 18 -50 18 0 -1 -8 -12 -18 -25z"/>
<path d="M11044 2652 c-23 -9 -63 -36 -89 -59 -46 -42 -47 -43 -21 -43 15 0
41 7 58 16 80 42 172 -43 162 -150 -3 -33 -2 -36 5 -16 13 37 13 88 -1 113 -7
12 -13 37 -14 54 -2 28 1 34 22 39 13 4 29 15 35 25 9 17 7 18 -18 8 -22 -8
-30 -7 -40 7 -7 10 -13 14 -13 9 0 -5 -5 -4 -12 3 -15 15 -24 15 -74 -6z"/>
<path d="M3353 2636 c4 -9 0 -12 -12 -9 -14 4 -20 -2 -23 -26 -2 -17 0 -35 6
-41 7 -7 3 -15 -12 -26 -16 -11 -22 -25 -22 -54 0 -21 5 -42 10 -45 6 -3 10
-18 10 -33 0 -24 19 -70 20 -48 0 6 6 2 13 -8 12 -17 15 -15 26 26 8 27 21 48
33 53 51 23 49 89 -3 108 -32 12 -36 43 -6 41 23 -2 22 13 -3 26 -10 6 -17 16
-14 24 3 7 -2 16 -12 20 -11 4 -15 2 -11 -8z"/>
<path d="M1806 2558 c-9 -5 -16 -14 -16 -19 0 -6 -9 -22 -20 -36 -26 -33 -26
-34 10 -72 26 -27 29 -34 17 -45 -19 -20 -10 -83 13 -89 10 -3 21 1 23 8 7 17
-9 39 -22 31 -6 -4 -11 -2 -11 3 0 6 11 11 25 11 28 0 43 23 27 43 -11 13 7
47 25 47 17 0 36 29 38 56 1 41 -72 83 -109 62z"/>
<path d="M4070 2547 c0 -9 -8 -22 -18 -29 -21 -16 -28 -78 -10 -90 20 -12 102
-9 120 5 19 15 29 75 14 85 -6 4 -24 12 -41 18 -16 6 -38 15 -47 19 -13 5 -18
3 -18 -8z"/>
<path d="M11178 2375 c-6 -13 -14 -22 -18 -20 -10 6 -20 -31 -20 -76 0 -69
-37 -128 -88 -144 -13 -4 -42 -26 -64 -48 -43 -44 -102 -126 -96 -132 3 -3 61
31 140 82 16 10 28 23 28 29 0 5 13 23 29 38 16 15 34 48 41 72 11 39 16 44
41 44 l29 0 0 68 c0 37 3 77 6 90 9 30 -13 29 -28 -3z"/>
<path d="M17155 2341 c-25 -5 -31 -12 -33 -39 -2 -18 3 -44 11 -56 9 -12 17
-33 19 -47 2 -17 8 -23 22 -21 11 2 26 -4 33 -14 7 -10 13 -13 13 -8 0 6 -4
14 -9 20 -5 5 -11 20 -13 34 -2 20 3 28 27 40 55 28 41 102 -19 99 -12 -1 -34
-4 -51 -8z"/>
<path d="M15700 2211 c0 -16 -7 -34 -15 -41 -8 -7 -12 -17 -8 -23 3 -5 -1 -16
-11 -22 -14 -11 -13 -13 15 -19 19 -4 33 -13 36 -26 3 -11 10 -20 15 -20 6 0
7 -11 4 -25 -5 -18 -2 -25 8 -25 7 0 16 9 19 21 3 12 10 18 15 15 5 -3 12 5
14 19 3 16 0 26 -11 30 -13 5 -11 10 12 27 44 32 31 78 -24 78 -18 0 -28 6
-32 20 -8 32 -37 25 -37 -9z"/>
<path d="M1815 2150 c-4 -6 -11 -8 -16 -5 -15 10 -10 -15 6 -32 9 -8 13 -18
10 -21 -3 -4 -10 0 -15 8 -7 11 -10 7 -10 -15 0 -18 3 -25 8 -18 4 7 6 -17 5
-53 -2 -38 -9 -74 -19 -89 -21 -33 -12 -84 21 -115 24 -22 35 -47 17 -36 -5 3
-9 -8 -10 -24 0 -22 4 -30 16 -30 15 -1 15 -2 -1 -11 -12 -7 -15 -15 -8 -27 4
-9 6 -23 4 -29 -3 -8 4 -13 16 -13 24 0 27 10 9 29 -11 11 -8 13 15 9 15 -3
27 -1 27 4 0 5 5 6 12 2 7 -4 8 -3 4 4 -4 7 -14 12 -22 12 -8 0 -15 5 -15 10
-2 14 -5 22 -14 43 -5 12 -2 22 11 32 12 9 14 15 7 16 -7 1 -17 2 -22 3 -28 4
-16 14 22 20 48 7 59 22 49 71 -3 16 -14 30 -29 36 -13 5 -26 15 -29 23 -3 8
-12 12 -20 9 -11 -4 -14 0 -10 18 3 13 8 59 11 102 3 62 2 77 -10 77 -7 0 -17
-5 -20 -10z"/>
<path d="M15000 2120 l-45 -5 0 -55 0 -55 58 2 c78 3 87 11 74 67 -11 49 -20
54 -87 46z"/>
<path d="M2560 2041 c0 -6 5 -13 10 -16 16 -10 12 -65 -5 -65 -8 0 -15 -6 -16
-12 0 -7 -2 -22 -4 -33 -5 -21 25 -105 37 -105 4 0 10 9 13 20 3 11 18 23 33
26 51 11 52 12 52 59 0 42 -2 46 -28 51 -22 4 -33 16 -46 45 -16 35 -46 54
-46 30z"/>
<path d="M1055 1860 c3 -5 2 -10 -3 -10 -18 0 -34 -73 -23 -103 9 -24 15 -27
38 -21 60 14 88 38 91 77 3 34 1 38 -27 43 -17 4 -31 10 -31 15 0 5 -12 9 -26
9 -14 0 -23 -4 -19 -10z"/>
<path d="M13192 1827 c-15 -41 -16 -84 -2 -92 6 -4 18 -24 27 -46 12 -32 18
-37 29 -28 12 10 12 15 -1 35 -21 32 -20 34 18 34 41 0 57 15 57 56 0 41 -21
58 -65 51 -22 -4 -34 -2 -32 5 1 6 -3 12 -8 14 -6 3 -16 -11 -23 -29z"/>
<path d="M15770 1818 c0 -7 7 -35 16 -63 21 -68 26 -113 14 -120 -13 -8 -2
-77 14 -87 6 -4 21 -8 33 -8 24 0 38 -14 28 -30 -4 -7 -13 -6 -26 1 -18 9 -20
8 -17 -8 2 -13 12 -18 33 -18 28 0 30 3 33 39 2 21 10 45 18 53 15 15 18 41 8
67 -4 11 -19 16 -49 16 -24 0 -47 4 -50 10 -3 6 1 7 9 4 9 -3 16 -1 16 5 0 6
-3 10 -7 10 -22 -4 -28 4 -27 29 1 15 3 35 3 45 1 10 5 15 11 12 6 -3 7 1 4 9
-7 19 -24 21 -25 4 0 -7 -5 -1 -11 15 -10 28 -28 37 -28 15z"/>
<path d="M365 1630 c1 -19 6 -43 10 -53 5 -11 1 -24 -9 -36 -24 -26 -18 -81
10 -91 32 -13 47 -60 19 -60 -8 0 -15 -6 -15 -14 0 -9 7 -12 19 -9 10 3 22 0
25 -6 4 -6 11 -11 17 -11 13 0 11 58 -2 62 -7 2 -6 29 4 87 12 71 12 87 1 111
-21 41 -41 55 -58 41 -11 -9 -15 -9 -19 1 -3 7 -4 -3 -2 -22z"/>
<path d="M6939 1656 c-3 -13 -7 -26 -9 -28 -7 -10 -7 -37 1 -32 5 3 9 -2 9
-11 0 -10 -5 -13 -12 -9 -7 5 -8 3 -3 -6 10 -16 18 -176 11 -205 -5 -21 -55
-45 -93 -45 -12 0 -25 -11 -32 -26 -10 -23 -10 -26 5 -20 9 4 32 -3 52 -14 19
-12 41 -19 49 -16 21 9 53 -12 65 -42 6 -15 11 -30 10 -34 -1 -5 8 -8 20 -8
21 0 21 0 3 -14 -16 -12 -17 -16 -6 -30 15 -18 41 -22 41 -6 0 5 11 22 25 37
13 16 33 39 43 52 l19 24 34 -25 c19 -14 48 -29 65 -32 23 -5 33 -15 43 -43
13 -36 81 -113 99 -113 5 0 12 -10 15 -21 4 -14 11 -20 21 -16 10 4 13 1 9 -9
-3 -9 1 -14 12 -14 10 0 13 5 9 12 -4 7 -3 8 5 4 6 -4 26 -4 43 -1 29 7 30 9
14 21 -10 7 -15 17 -12 22 5 9 -25 99 -45 132 -44 74 -59 112 -50 129 6 10 8
21 5 24 -6 5 22 23 41 27 18 3 17 8 -5 20 -11 6 -28 10 -38 8 -22 -4 -58 22
-65 47 -48 165 -47 163 -81 184 -39 25 -66 27 -66 6 0 -10 10 -15 31 -15 28 0
31 -2 25 -25 -4 -15 -1 -34 8 -48 7 -12 16 -34 20 -49 6 -25 3 -28 -18 -28
-13 0 -40 7 -60 15 -27 12 -36 21 -36 39 0 27 -30 86 -44 86 -4 0 -6 -7 -3
-15 3 -7 -2 -24 -12 -36 -14 -17 -24 -20 -45 -15 -21 5 -33 20 -52 63 -24 54
-63 113 -65 99z"/>
<path d="M1825 1538 c4 -40 10 -77 13 -83 3 -5 5 -29 3 -53 -4 -71 8 -122 32
-132 l22 -9 -21 0 c-33 -1 -47 -25 -40 -72 3 -23 10 -47 15 -53 5 -6 12 -33
16 -61 4 -27 9 -53 11 -57 2 -3 7 -53 10 -110 3 -56 7 -116 9 -133 2 -16 4
-47 4 -68 1 -31 5 -40 23 -45 21 -5 21 -6 3 -12 -16 -5 -19 -15 -17 -43 2 -21
-1 -52 -8 -71 -9 -28 -7 -42 10 -87 25 -62 43 -79 50 -47 3 13 16 25 30 28 37
9 56 50 45 97 -8 31 -15 39 -37 41 -29 3 -36 16 -16 28 7 5 5 11 -7 21 -11 7
-14 13 -9 13 13 0 6 142 -8 155 -2 3 -3 35 -1 71 3 51 0 71 -12 84 -21 23 -25
72 -6 86 10 8 14 27 12 61 -1 35 3 54 14 63 18 15 20 81 3 98 -7 7 -22 12 -34
12 -25 0 -45 21 -26 28 7 2 12 10 12 18 0 9 3 13 8 11 11 -7 6 44 -7 78 -9 21
-9 36 -2 52 6 12 6 25 1 28 -4 3 -11 -1 -14 -7 -2 -7 -4 -2 -3 11 2 20 -6 29
-42 48 -1 1 4 12 13 24 20 29 5 59 -30 59 l-26 0 7 -72z"/>
<path d="M2600 1505 c0 -19 6 -39 13 -46 17 -16 7 -226 -12 -255 -22 -33 11
-62 71 -65 51 -3 94 22 84 48 -3 7 -1 13 4 13 17 0 -26 65 -46 69 -10 2 -32
12 -47 23 -22 16 -26 23 -16 34 7 8 20 12 30 9 9 -3 21 0 25 6 5 9 2 10 -9 6
-14 -5 -17 1 -17 40 0 28 -6 53 -15 64 -14 15 -14 18 0 32 21 21 19 37 -4 37
-11 0 -23 5 -26 10 -15 24 -35 9 -35 -25z"/>
<path d="M5553 1483 c-7 -3 -13 -18 -13 -34 0 -16 -8 -46 -18 -67 -23 -46 -19
-62 16 -83 24 -14 28 -21 24 -51 -3 -25 1 -37 12 -41 10 -4 13 -1 10 7 -3 7 2
16 10 19 9 4 16 13 16 20 0 8 7 21 17 28 9 8 24 27 34 42 16 28 16 30 -5 69
-11 23 -29 43 -38 46 -10 2 -20 12 -23 22 -6 20 -24 29 -42 23z"/>
<path d="M10721 1478 c5 -45 -3 -81 -24 -101 -42 -39 -49 -62 -27 -82 11 -10
20 -26 20 -35 0 -18 29 -24 31 -6 1 6 2 17 3 25 0 8 10 15 20 17 10 1 24 9 31
16 20 21 25 81 9 103 -8 10 -14 25 -14 33 0 16 -24 42 -40 42 -6 0 -10 -6 -9
-12z"/>
<path d="M3333 1363 c-15 -5 -18 -103 -4 -103 5 0 9 -30 10 -66 0 -36 3 -70 6
-75 4 -5 8 -64 10 -131 12 -367 15 -412 32 -430 8 -9 13 -24 9 -33 -3 -9 6
-104 20 -213 26 -202 31 -250 33 -289 1 -20 6 -23 45 -23 l44 0 -5 42 c-3 24
-9 50 -12 58 -4 8 -6 35 -5 60 2 45 -21 237 -33 275 -3 11 -5 52 -4 90 5 126
3 145 -13 170 -11 17 -16 50 -17 117 -1 117 -7 158 -25 158 -8 0 -14 5 -14 11
0 5 5 7 10 4 6 -3 10 -3 10 0 0 3 -15 13 -32 21 -19 9 -24 13 -11 11 13 -3 24
1 27 10 9 23 7 33 -8 33 -20 0 -16 79 6 85 24 8 31 35 9 35 -10 0 -20 3 -24 6
-9 10 4 35 15 28 6 -4 5 3 -1 15 -7 11 -19 22 -29 22 -9 1 1 5 22 8 32 5 41
11 49 34 6 19 6 37 -2 53 -9 21 -17 24 -58 23 -27 0 -54 -3 -60 -6z"/>
<path d="M404 1220 c8 -56 46 -180 59 -198 13 -17 16 -163 4 -179 -10 -14 4
-32 41 -52 12 -6 22 -18 22 -26 0 -21 33 -95 42 -95 5 0 8 -9 8 -19 0 -29 13
-33 49 -15 l31 15 -22 29 c-17 24 -19 32 -8 45 10 12 10 15 -2 15 -8 0 -22 16
-31 34 -16 34 -15 35 4 41 18 6 20 12 14 43 -4 21 -12 48 -18 61 -14 28 -44
44 -34 18 3 -9 2 -19 -3 -22 -12 -7 -40 23 -40 43 0 8 -5 30 -12 49 -14 38 -6
52 18 32 16 -13 17 -12 10 11 -4 14 -10 37 -13 53 -3 15 -9 27 -14 27 -4 0
-11 20 -14 44 -4 26 -13 47 -22 51 -24 9 -26 -1 -8 -29 21 -32 12 -50 -17 -35
-15 8 -19 18 -16 40 3 20 -1 34 -15 47 -19 17 -19 16 -13 -28z"/>
<path d="M1074 1188 c-4 -13 -7 -29 -5 -37 1 -8 -3 -18 -11 -22 -11 -7 -11 -9
1 -9 7 0 11 -6 7 -15 -8 -22 34 -29 69 -11 17 9 38 16 47 16 26 0 35 55 15 88
-5 7 -30 12 -62 12 -47 0 -55 -3 -61 -22z"/>
<path d="M17259 1089 c-11 -21 -7 -82 6 -91 13 -10 84 -9 109 1 25 10 31 74 9
93 -24 19 -113 17 -124 -3z"/>
<path d="M15934 1092 c-6 -4 -14 -27 -17 -52 -5 -37 -1 -55 21 -100 29 -57 59
-74 54 -31 -1 14 9 36 28 57 18 21 30 46 30 63 0 31 -14 41 -56 41 -14 0 -23
4 -20 9 3 5 -1 12 -10 15 -19 7 -17 7 -30 -2z"/>
<path d="M6341 1051 c-8 -5 -19 -7 -26 -5 -7 3 -10 -7 -7 -31 3 -26 7 -34 15
-26 17 17 24 13 29 -14 5 -23 -4 -30 -34 -26 -3 0 -5 -12 -3 -27 5 -38 7 -159
3 -212 -2 -33 2 -51 18 -70 21 -25 39 -84 23 -74 -5 3 -9 -4 -9 -15 0 -14 9
-21 31 -26 20 -5 27 -10 19 -15 -8 -5 -7 -9 5 -14 28 -10 37 -7 30 13 -3 11
-2 22 3 25 5 3 6 27 1 57 -6 37 -4 57 5 73 20 31 12 83 -17 110 -32 29 -54
131 -32 149 6 6 6 10 -2 14 -7 2 -13 11 -13 18 0 7 -6 15 -12 18 -10 3 -10 7
0 20 18 21 -5 71 -27 58z"/>
<path d="M38 898 c-37 -91 -38 -97 -37 -218 l0 -125 30 65 c53 115 63 165 53
275 l-9 98 -37 -95z"/>
<path d="M1120 966 c-10 -20 -9 -41 9 -133 12 -59 31 -144 43 -188 27 -102 32
-166 18 -208 -8 -27 -24 -42 -80 -72 -80 -44 -125 -88 -134 -131 l-7 -30 53 2
c76 3 178 63 178 105 0 9 7 22 15 29 12 10 17 7 26 -16 6 -16 13 -42 16 -59 2
-16 8 -39 13 -50 5 -11 11 -36 14 -55 2 -19 10 -55 16 -80 6 -25 12 -53 13
-62 1 -10 5 -18 9 -18 11 0 10 54 -1 82 -16 40 -33 177 -37 296 -3 78 -9 121
-18 131 -22 26 -35 96 -38 204 0 25 -5 37 -15 37 -11 0 -13 7 -8 29 4 20 1 38
-10 55 -13 19 -14 29 -5 45 8 15 7 26 -2 41 -7 11 -16 20 -20 20 -5 0 -8 6 -8
14 0 7 -6 19 -13 25 -11 8 -17 5 -27 -13z"/>
<path d="M7015 833 c-4 -17 -2 -29 4 -31 6 -2 9 -9 5 -15 -3 -7 2 -3 10 7 16
19 16 19 16 -3 0 -12 -7 -30 -16 -38 -10 -11 -14 -25 -10 -42 4 -14 8 -34 9
-44 2 -20 84 -97 103 -97 32 0 13 90 -21 104 -9 3 -15 11 -14 18 2 14 -11 50
-21 58 -12 9 -21 60 -10 60 5 0 10 6 10 14 0 8 -8 13 -17 12 -10 0 -17 5 -15
12 5 25 -26 11 -33 -15z"/>
<path d="M7688 715 c-3 -3 -134 -18 -158 -17 -28 1 -110 -22 -110 -30 0 -5 4
-7 9 -4 11 7 28 -13 33 -39 4 -25 37 -32 146 -34 49 -1 82 -5 82 -11 0 -7 6
-7 20 0 16 9 19 8 13 -6 -4 -11 2 -22 15 -33 19 -14 21 -21 13 -48 -6 -19 -5
-35 1 -41 10 -10 23 -61 38 -147 5 -27 18 -93 30 -145 18 -83 19 -96 5 -106
-12 -9 -10 -14 15 -32 27 -20 41 -22 175 -22 140 0 148 1 166 22 24 29 24 38
0 38 -11 0 -21 6 -23 12 -4 10 -14 8 -44 -5 -21 -9 -64 -18 -94 -19 l-55 -3
-7 55 c-3 30 -10 93 -13 140 -9 105 -33 181 -87 268 -55 90 -88 153 -88 166 0
18 -69 53 -82 41z"/>
<path d="M607 612 c-16 -28 14 -152 45 -188 10 -11 18 -27 18 -36 0 -25 29
-102 43 -113 7 -6 12 -35 12 -70 0 -52 4 -65 28 -90 15 -17 36 -49 47 -72 19
-41 22 -43 65 -43 38 0 43 3 38 18 -3 9 -11 23 -17 31 -6 8 -9 38 -8 68 5 69
-11 107 -55 134 -26 16 -33 27 -29 42 3 11 -4 32 -17 49 -12 16 -21 40 -19 54
3 18 0 22 -12 18 -10 -4 -20 5 -31 25 -13 27 -13 31 -1 31 31 0 25 20 -9 34
-37 16 -42 25 -24 43 14 14 -10 43 -36 43 -9 0 -14 4 -11 9 3 5 -1 11 -9 15
-8 3 -16 2 -18 -2z"/>
<path d="M2715 562 c-54 -7 -62 -29 -39 -104 6 -21 65 -25 110 -8 25 10 26 14
21 56 -2 25 -6 46 -8 48 -9 7 -56 12 -84 8z"/>
<path d="M7110 490 c-12 -8 -12 -30 3 -167 10 -87 20 -170 23 -185 4 -18 0
-32 -14 -46 -18 -18 -19 -22 -6 -32 7 -7 12 -16 9 -20 -3 -5 -2 -15 1 -24 5
-12 21 -16 69 -16 35 0 67 5 70 11 4 5 17 14 29 19 31 11 30 38 -1 32 -16 -3
-23 0 -23 11 0 9 -10 25 -21 36 -20 18 -36 68 -43 133 -1 15 -9 34 -16 43 -8
10 -9 15 -1 15 6 0 11 5 11 10 0 6 -6 10 -12 9 -30 -4 -42 1 -31 12 13 13 6
80 -11 94 -6 6 -10 18 -8 27 5 27 -11 49 -28 38z"/>
<path d="M5596 408 c3 -29 9 -64 14 -78 8 -24 19 -82 39 -202 6 -31 7 -72 4
-92 l-6 -36 63 0 63 0 -7 32 c-3 18 -10 34 -14 38 -21 15 -43 66 -45 103 -2
34 -6 42 -21 42 -11 0 -21 6 -23 13 -3 6 0 12 7 12 6 0 8 -5 4 -12 -4 -7 -3
-8 4 -4 15 9 4 36 -12 30 -9 -3 -11 4 -8 24 2 18 -2 35 -13 46 -13 12 -16 27
-12 55 4 30 0 42 -19 60 l-23 22 5 -53z"/>
<path d="M17335 413 c-28 -65 -2 -116 50 -100 77 25 76 24 73 68 -3 38 -6 42
-43 55 -57 20 -63 18 -80 -23z"/>
<path d="M250 265 c-37 -66 -45 -75 -70 -75 -16 0 -32 5 -35 10 -11 18 -25 11
-36 -17 -8 -21 -6 -34 7 -58 13 -25 14 -38 5 -70 -15 -55 -15 -55 20 -55 28 0
42 8 106 60 6 5 17 35 24 66 9 39 20 61 36 72 18 11 23 21 19 38 -3 13 -2 26
4 29 10 6 -12 59 -29 69 -5 4 -28 -28 -51 -69z"/>
</g>
</svg>
